<svg xmlns="http://www.w3.org/2000/svg" xmlns:svg="http://www.w3.org/2000/svg" id="svg3143" width="1052.362" height="744.094" version="1.1"><defs id="defs3145"><marker id="DotS" orient="auto" refX="0" refY="0" style="overflow:visible"><path id="path4140" d="M -2.5,-1.0 C -2.5,1.7600000 -4.7400000,4.0 -7.5,4.0 C -10.260000,4.0 -12.5,1.7600000 -12.5,-1.0 C -12.5,-3.7600000 -10.260000,-6.0 -7.5,-6.0 C -4.7400000,-6.0 -2.5,-3.7600000 -2.5,-1.0 z" transform="scale(0.2) translate(7.4, 1)" style="fill-rule:evenodd;stroke:#000;stroke-width:1pt"/></marker><marker id="Arrow1Send" orient="auto" refX="0" refY="0" style="overflow:visible"><path id="path4088" d="M 0.0,0.0 L 5.0,-5.0 L -12.5,0.0 L 5.0,5.0 L 0.0,0.0 z" transform="scale(0.2) rotate(180) translate(6,0)" style="fill-rule:evenodd;stroke:#000;stroke-width:1pt"/></marker><marker id="Arrow1Mend" orient="auto" refX="0" refY="0" style="overflow:visible"><path id="path4082" d="M 0.0,0.0 L 5.0,-5.0 L -12.5,0.0 L 5.0,5.0 L 0.0,0.0 z" transform="scale(0.4) rotate(180) translate(10,0)" style="fill-rule:evenodd;stroke:#000;stroke-width:1pt"/></marker><marker id="Arrow1Send-7" orient="auto" refX="0" refY="0" style="overflow:visible"><path id="path4088-4" d="M 0,0 5,-5 -12.5,0 5,5 0,0 z" transform="matrix(-0.2,0,0,-0.2,-1.2,0)" style="fill-rule:evenodd;stroke:#000;stroke-width:1pt"/></marker><marker id="Arrow1Send-8" orient="auto" refX="0" refY="0" style="overflow:visible"><path id="path4088-9" d="M 0,0 5,-5 -12.5,0 5,5 0,0 z" transform="matrix(-0.2,0,0,-0.2,-1.2,0)" style="fill-rule:evenodd;stroke:#000;stroke-width:1pt"/></marker><marker id="Arrow1Send-2" orient="auto" refX="0" refY="0" style="overflow:visible"><path id="path4088-8" d="M 0,0 5,-5 -12.5,0 5,5 0,0 z" transform="matrix(-0.2,0,0,-0.2,-1.2,0)" style="fill-rule:evenodd;stroke:#000;stroke-width:1pt"/></marker><marker id="Arrow1Send-3" orient="auto" refX="0" refY="0" style="overflow:visible"><path id="path4088-97" d="M 0,0 5,-5 -12.5,0 5,5 0,0 z" transform="matrix(-0.2,0,0,-0.2,-1.2,0)" style="fill-rule:evenodd;stroke:#000;stroke-width:1pt"/></marker><marker id="Arrow1Send-85" orient="auto" refX="0" refY="0" style="overflow:visible"><path id="path4088-5" d="M 0,0 5,-5 -12.5,0 5,5 0,0 z" transform="matrix(-0.2,0,0,-0.2,-1.2,0)" style="fill-rule:evenodd;stroke:#000;stroke-width:1pt"/></marker><marker id="Arrow1Send-0" orient="auto" refX="0" refY="0" style="overflow:visible"><path id="path4088-48" d="M 0,0 5,-5 -12.5,0 5,5 0,0 z" transform="matrix(-0.2,0,0,-0.2,-1.2,0)" style="fill-rule:evenodd;stroke:#000;stroke-width:1pt"/></marker><marker id="DotS-7" orient="auto" refX="0" refY="0" style="overflow:visible"><path id="path4140-0" d="m -2.5,-1 c 0,2.76 -2.24,5 -5,5 -2.76,0 -5,-2.24 -5,-5 0,-2.76 2.24,-5 5,-5 2.76,0 5,2.24 5,5 z" transform="matrix(0.2,0,0,0.2,1.48,0.2)" style="fill-rule:evenodd;stroke:#000;stroke-width:1pt"/></marker><marker id="Arrow1Send-7-6" orient="auto" refX="0" refY="0" style="overflow:visible"><path id="path4088-4-6" d="M 0,0 5,-5 -12.5,0 5,5 0,0 z" transform="matrix(-0.2,0,0,-0.2,-1.2,0)" style="fill-rule:evenodd;stroke:#000;stroke-width:1pt"/></marker><marker id="Arrow1Send-6" orient="auto" refX="0" refY="0" style="overflow:visible"><path id="path4088-0" d="M 0,0 5,-5 -12.5,0 5,5 0,0 z" transform="matrix(-0.2,0,0,-0.2,-1.2,0)" style="fill-rule:evenodd;stroke:#000;stroke-width:1pt"/></marker><marker id="Arrow1Send-29" orient="auto" refX="0" refY="0" style="overflow:visible"><path id="path4088-7" d="M 0,0 5,-5 -12.5,0 5,5 0,0 z" transform="matrix(-0.2,0,0,-0.2,-1.2,0)" style="fill-rule:evenodd;stroke:#000;stroke-width:1pt"/></marker><marker id="Arrow1Send-7-2" orient="auto" refX="0" refY="0" style="overflow:visible"><path id="path4088-4-0" d="M 0,0 5,-5 -12.5,0 5,5 0,0 z" transform="matrix(-0.2,0,0,-0.2,-1.2,0)" style="fill-rule:evenodd;stroke:#000;stroke-width:1pt"/></marker><marker id="Arrow1Send-7-62" orient="auto" refX="0" refY="0" style="overflow:visible"><path id="path4088-4-03" d="M 0,0 5,-5 -12.5,0 5,5 0,0 z" transform="matrix(-0.2,0,0,-0.2,-1.2,0)" style="fill-rule:evenodd;stroke:#000;stroke-width:1pt"/></marker><marker id="Arrow1Send-7-4" orient="auto" refX="0" refY="0" style="overflow:visible"><path id="path4088-4-63" d="M 0,0 5,-5 -12.5,0 5,5 0,0 z" transform="matrix(-0.2,0,0,-0.2,-1.2,0)" style="fill-rule:evenodd;stroke:#000;stroke-width:1pt"/></marker></defs><metadata id="metadata3148"/><g id="layer1" transform="translate(0,-308.2677)"><g id="g5066" transform="translate(7.6293945e-6,40.765967)"><text id="text3151" x="124.049" y="621.498" xml:space="preserve" style="font-size:12px;font-style:normal;font-variant:normal;font-weight:400;font-stretch:normal;text-align:start;line-height:125%;letter-spacing:0;word-spacing:0;text-anchor:start;fill:#000;fill-opacity:1;stroke:none;font-family:monofur;-inkscape-font-specification:monofur"><tspan id="tspan3153" x="124.049" y="621.498">prelive</tspan></text><rect id="rect3179" width="105.299" height="69.866" x="92.652" y="582.815" style="fill:none;stroke:#000;stroke-width:.99999994"/><text id="text3155" x="297.401" y="621.498" xml:space="preserve" style="font-size:12px;font-style:normal;font-variant:normal;font-weight:400;font-stretch:normal;text-align:center;line-height:125%;letter-spacing:0;word-spacing:0;text-anchor:middle;fill:#000;fill-opacity:1;stroke:none;font-family:monofur;-inkscape-font-specification:monofur"><tspan id="tspan3157" x="297.401" y="621.498">halflive</tspan></text><rect id="rect3179-0" width="105.299" height="69.866" x="245.004" y="582.815" style="opacity:1;fill:none;stroke:#000;stroke-width:.99999994000000003"/><text id="text3159" x="437.44" y="621.498" xml:space="preserve" style="font-size:12px;font-style:normal;font-variant:normal;font-weight:400;font-stretch:normal;text-align:start;line-height:125%;letter-spacing:0;word-spacing:0;text-anchor:start;fill:#000;fill-opacity:1;stroke:none;font-family:monofur;-inkscape-font-specification:monofur"><tspan id="tspan3161" x="437.44" y="621.498">live</tspan></text><rect id="rect3179-08" width="105.299" height="69.866" x="397.355" y="582.815" style="fill:none;stroke:#000;stroke-width:.99999994"/><text id="text3163" x="578.105" y="621.498" xml:space="preserve" style="font-size:12px;font-style:normal;font-variant:normal;font-weight:400;font-stretch:normal;text-align:start;line-height:125%;letter-spacing:0;word-spacing:0;text-anchor:start;fill:#000;fill-opacity:1;stroke:none;font-family:monofur;-inkscape-font-specification:monofur"><tspan id="tspan3165" x="578.105" y="621.498">postlive</tspan></text><rect id="rect3179-6" width="105.299" height="69.866" x="549.707" y="582.815" style="fill:none;stroke:#000;stroke-width:.99999994"/><text id="text3167" x="724.459" y="621.498" xml:space="preserve" style="font-size:12px;font-style:normal;font-variant:normal;font-weight:400;font-stretch:normal;text-align:start;line-height:125%;letter-spacing:0;word-spacing:0;text-anchor:start;fill:#000;fill-opacity:1;stroke:none;font-family:monofur;-inkscape-font-specification:monofur"><tspan id="tspan3169" x="724.459" y="621.498">processing</tspan></text><rect id="rect3179-1" width="105.299" height="69.866" x="702.059" y="582.815" style="fill:none;stroke:#000;stroke-width:.99999994"/><text id="text3171" x="883.311" y="621.498" xml:space="preserve" style="font-size:12px;font-style:normal;font-variant:normal;font-weight:400;font-stretch:normal;text-align:start;line-height:125%;letter-spacing:0;word-spacing:0;text-anchor:start;fill:#000;fill-opacity:1;stroke:none;font-family:monofur;-inkscape-font-specification:monofur"><tspan id="tspan3173" x="883.311" y="621.498">archived</tspan></text><rect id="rect3179-2" width="105.299" height="69.866" x="854.411" y="582.815" style="fill:none;stroke:#000;stroke-width:.99999994"/><rect id="rect3179-2-5" width="98.841" height="62.82" x="857.641" y="586.338" style="fill:none;stroke:#000;stroke-width:1"/><path id="path3299" d="m 203.85355,617.74842 34.32215,0" style="opacity:1;fill:none;stroke:#000;stroke-width:1px;stroke-linecap:butt;stroke-linejoin:miter;stroke-opacity:1;marker-end:url(#Arrow1Send)"/><path id="path3299-6" d="m 355.85355,617.74842 34.32215,0" style="fill:none;stroke:#000;stroke-width:1px;stroke-linecap:butt;stroke-linejoin:miter;stroke-opacity:1;marker-end:url(#Arrow1Send)"/><path id="path3299-6-3" d="m 509.85355,617.74842 34.32215,0" style="fill:none;stroke:#000;stroke-width:1px;stroke-linecap:butt;stroke-linejoin:miter;stroke-opacity:1;marker-end:url(#Arrow1Send)"/><path id="path3299-6-8" d="m 661.85355,617.74842 34.32215,0" style="fill:none;stroke:#000;stroke-width:1px;stroke-linecap:butt;stroke-linejoin:miter;stroke-opacity:1;marker-end:url(#Arrow1Send)"/><path id="path3299-6-7" d="m 813.85355,617.74842 34.32215,0" style="fill:none;stroke:#000;stroke-width:1px;stroke-linecap:butt;stroke-linejoin:miter;stroke-opacity:1;marker-end:url(#Arrow1Send)"/><path id="path3299-6-2-1" d="m 145.30112,540.35151 0,34.32215" style="fill:none;stroke:#000;stroke-width:1px;stroke-linecap:butt;stroke-linejoin:miter;stroke-opacity:1;marker-end:url(#Arrow1Send)"/><path id="path4731-8" d="m 145.98474,659.65468 c 52.33282,90.64309 253.35724,89.44037 304.57092,0.73568" style="fill:none;stroke:#000;stroke-width:1px;stroke-linecap:butt;stroke-linejoin:miter;stroke-opacity:1;marker-end:url(#Arrow1Send-7)"/><text id="text3151-1" x="145.551" y="501.498" xml:space="preserve" style="font-size:12px;font-style:normal;font-variant:normal;font-weight:400;font-stretch:normal;text-align:start;line-height:125%;letter-spacing:0;word-spacing:0;text-anchor:start;fill:#000;fill-opacity:1;stroke:none;font-family:monofur;-inkscape-font-specification:monofur"><tspan id="tspan3153-6" x="145.551" y="501.498" style="text-align:center;text-anchor:middle">created</tspan></text><rect id="rect3179-9" width="105.299" height="69.866" x="92.652" y="462.815" style="fill:none;stroke:#000;stroke-width:.99999994"/><path id="path3299-6-2-1-5" d="m 145.30112,420.35151 0,34.32215" style="fill:none;stroke:#000;stroke-width:1px;stroke-linecap:butt;stroke-linejoin:miter;stroke-opacity:1;marker-end:url(#Arrow1Send)"/><g id="g3141" transform="translate(-2.9440308,0)"><text style="font-size:12px;font-style:normal;font-variant:normal;font-weight:400;font-stretch:normal;text-align:start;line-height:125%;letter-spacing:0;word-spacing:0;text-anchor:start;fill:#000;fill-opacity:1;stroke:none;font-family:monofur;-inkscape-font-specification:monofur" id="text3151-1-1" x="605.551" y="501.498" xml:space="preserve"><tspan style="text-align:center;text-anchor:middle" id="tspan3153-6-2" x="605.551" y="501.498">pending</tspan></text><rect style="fill:none;stroke:#000;stroke-width:.99999994" id="rect3179-9-6" width="105.299" height="69.866" x="552.651" y="462.815"/></g><path id="path3299-3" d="m 203.85358,497.74844 339.82224,0" style="fill:none;stroke:#000;stroke-width:1px;stroke-linecap:butt;stroke-linejoin:miter;stroke-opacity:1;marker-end:url(#Arrow1Send)"/><path id="path4731-8-6" d="m 660.52789,498.49093 c 214.24093,0 240.08588,63.35485 248.14843,77.3196" style="fill:none;stroke:#000;stroke-width:1px;stroke-linecap:butt;stroke-linejoin:miter;stroke-opacity:1;marker-end:url(#Arrow1Send-7)"/><text id="text3151-2" x="341.298" y="493.579" xml:space="preserve" style="font-size:12px;font-style:normal;font-variant:normal;font-weight:400;font-stretch:normal;text-align:start;line-height:125%;letter-spacing:0;word-spacing:0;text-anchor:start;fill:#000;fill-opacity:1;stroke:none;font-family:monofur;-inkscape-font-specification:monofur"><tspan id="tspan3163" x="341.298" y="493.579">prepare</tspan></text><text id="text3151-9" x="-612.759" y="224.102" transform="matrix(0,-1,1,0,0,0)" xml:space="preserve" style="font-size:12px;font-style:normal;font-variant:normal;font-weight:400;font-stretch:normal;text-align:start;line-height:125%;letter-spacing:0;word-spacing:0;text-anchor:start;fill:#000;fill-opacity:1;stroke:none;font-family:monofur;-inkscape-font-specification:monofur;text-indent:0;text-decoration:none;text-transform:none;direction:ltr;block-progression:tb;writing-mode:lr-tb;baseline-shift:baseline;color:#000;fill-rule:nonzero;marker:none;visibility:visible;display:inline;overflow:visible;enable-background:accumulate"><tspan id="tspan3153-0" x="-612.759" y="224.102">start_talk</tspan></text><text id="text3151-9-2" x="-612.759" y="377.225" transform="matrix(0,-1,1,0,0,0)" xml:space="preserve" style="font-size:12px;font-style:normal;font-variant:normal;font-weight:400;font-stretch:normal;text-indent:0;text-align:start;text-decoration:none;line-height:125%;letter-spacing:0;word-spacing:0;text-transform:none;direction:ltr;block-progression:tb;writing-mode:lr-tb;text-anchor:start;baseline-shift:baseline;color:#000;fill:#000;fill-opacity:1;fill-rule:nonzero;stroke:none;marker:none;visibility:visible;display:inline;overflow:visible;enable-background:accumulate;font-family:monofur;-inkscape-font-specification:monofur"><tspan id="tspan3153-0-0" x="-612.759" y="377.225">start_talk</tspan></text><text id="text3151-9-6" x="267.481" y="742.786" xml:space="preserve" style="font-size:12px;font-style:normal;font-variant:normal;font-weight:400;font-stretch:normal;text-indent:0;text-align:start;text-decoration:none;line-height:125%;letter-spacing:0;word-spacing:0;text-transform:none;direction:ltr;block-progression:tb;writing-mode:lr-tb;text-anchor:start;baseline-shift:baseline;color:#000;fill:#000;fill-opacity:1;fill-rule:nonzero;stroke:none;marker:none;visibility:visible;display:inline;overflow:visible;enable-background:accumulate;font-family:monofur;-inkscape-font-specification:monofur"><tspan id="tspan3153-0-6" x="267.481" y="742.786">start_talk</tspan></text><text id="text3151-2-6" x="149.688" y="559.475" xml:space="preserve" style="font-size:12px;font-style:normal;font-variant:normal;font-weight:400;font-stretch:normal;text-align:start;line-height:125%;letter-spacing:0;word-spacing:0;text-anchor:start;fill:#000;fill-opacity:1;stroke:none;font-family:monofur;-inkscape-font-specification:monofur"><tspan id="tspan3163-3" x="149.688" y="559.475">prepare</tspan></text><text id="text3151-2-3" x="841.298" y="513.578" xml:space="preserve" style="font-size:12px;font-style:normal;font-variant:normal;font-weight:400;font-stretch:normal;text-align:start;line-height:125%;letter-spacing:0;word-spacing:0;text-anchor:start;fill:#000;fill-opacity:1;stroke:none;font-family:monofur;-inkscape-font-specification:monofur"><tspan id="tspan3163-7" x="841.298" y="513.578">archive</tspan></text><text id="text3151-2-3-7" x="-613.068" y="835.225" transform="matrix(0,-1,1,0,0,0)" xml:space="preserve" style="font-size:12px;font-style:normal;font-variant:normal;font-weight:400;font-stretch:normal;text-align:start;line-height:125%;letter-spacing:0;word-spacing:0;text-anchor:start;fill:#000;fill-opacity:1;stroke:none;font-family:monofur;-inkscape-font-specification:monofur"><tspan id="tspan3163-7-4" x="-613.068" y="835.225">archive</tspan></text><text id="text3151-2-3-7-5" x="-613.068" y="683.225" transform="matrix(0,-1,1,0,0,0)" xml:space="preserve" style="font-size:12px;font-style:normal;font-variant:normal;font-weight:400;font-stretch:normal;text-align:start;line-height:125%;letter-spacing:0;word-spacing:0;text-anchor:start;fill:#000;fill-opacity:1;stroke:none;font-family:monofur;-inkscape-font-specification:monofur"><tspan id="tspan3163-7-4-3" x="-613.068" y="683.225">process</tspan></text><text id="text3151-2-3-7-5-5" x="-613.068" y="528.977" transform="matrix(0,-1,1,0,0,0)" xml:space="preserve" style="font-size:12px;font-style:normal;font-variant:normal;font-weight:400;font-stretch:normal;text-align:start;line-height:125%;letter-spacing:0;word-spacing:0;text-anchor:start;fill:#000;fill-opacity:1;stroke:none;font-family:monofur;-inkscape-font-specification:monofur"><tspan id="tspan3163-7-4-3-0" x="-613.068" y="528.977">end_talk</tspan></text><path id="path4731-8-2" d="m 145.98474,660.26027 c 131.06158,228.56888 634.50431,225.53606 762.76312,1.85512" style="fill:none;stroke:#000;stroke-width:.99999994px;stroke-linecap:butt;stroke-linejoin:miter;stroke-opacity:1;marker-end:url(#Arrow1Send-7)"/><path id="path4731-8-9" d="m 604.1736,659.65468 c 52.33282,90.64309 253.35724,89.44037 304.57092,0.73568" style="fill:none;stroke:#000;stroke-width:1px;stroke-linecap:butt;stroke-linejoin:miter;stroke-opacity:1;marker-end:url(#Arrow1Send-7)"/><text id="text3151-2-3-0" x="735.594" y="742.786" xml:space="preserve" style="font-size:12px;font-style:normal;font-variant:normal;font-weight:400;font-stretch:normal;text-align:start;line-height:125%;letter-spacing:0;word-spacing:0;text-anchor:start;fill:#000;fill-opacity:1;stroke:none;font-family:monofur;-inkscape-font-specification:monofur"><tspan id="tspan3163-7-0" x="735.594" y="742.786">archive</tspan></text><text id="text3151-2-3-3" x="506.5" y="821.069" xml:space="preserve" style="font-size:12px;font-style:normal;font-variant:normal;font-weight:400;font-stretch:normal;text-align:start;line-height:125%;letter-spacing:0;word-spacing:0;text-anchor:start;fill:#000;fill-opacity:1;stroke:none;font-family:monofur;-inkscape-font-specification:monofur"><tspan id="tspan3163-7-8" x="506.5" y="821.069">archive</tspan></text></g><text style="font-size:12px;font-style:normal;font-variant:normal;font-weight:400;font-stretch:normal;text-align:start;line-height:125%;letter-spacing:0;word-spacing:0;text-anchor:start;fill:#000;fill-opacity:1;stroke:none;font-family:monofur;-inkscape-font-specification:monofur" id="text5099" x="526.186" y="394.297" xml:space="preserve"><tspan id="tspan5101" x="526.186" y="394.297" style="font-size:24px;text-align:center;text-anchor:middle">State Machine Talk v1.2</tspan></text><path style="fill:none;stroke:#000;stroke-width:1;stroke-linecap:butt;stroke-linejoin:miter;stroke-miterlimit:4;stroke-opacity:1;stroke-dasharray:1.00000001,2.00000003;stroke-dashoffset:0;marker-start:url(#DotS)" id="path5103" d="m 403.4893,687.35578 0,-101.27755"/><text style="font-size:12px;font-style:normal;font-variant:normal;font-weight:400;font-stretch:normal;text-align:start;line-height:125%;letter-spacing:0;word-spacing:0;text-anchor:start;fill:#000;fill-opacity:1;stroke:none;font-family:monofur;-inkscape-font-specification:monofur" id="text5305" x="400.616" y="569.105" xml:space="preserve"><tspan id="tspan5307" x="400.616" y="569.105">schedule end talk</tspan><tspan id="tspan5309" x="400.616" y="584.105">set started_at</tspan></text><path style="fill:none;stroke:#000;stroke-width:1;stroke-linecap:butt;stroke-linejoin:miter;stroke-miterlimit:4;stroke-opacity:1;stroke-dasharray:.99999997,1.99999994;stroke-dashoffset:0;marker-start:url(#DotS)" id="path5103-3" d="m 541.68887,664.67326 0,97.68357"/><text style="font-size:12px;font-style:normal;font-variant:normal;font-weight:400;font-stretch:normal;text-align:start;line-height:125%;letter-spacing:0;word-spacing:0;text-anchor:start;fill:#000;fill-opacity:1;stroke:none;font-family:monofur;-inkscape-font-specification:monofur" id="text5305-6" x="538.416" y="770.657" xml:space="preserve"><tspan id="tspan5307-7" x="538.416" y="770.657">schedule postprocessing</tspan><tspan id="tspan5378" x="538.416" y="785.657">publish end talk</tspan><tspan id="tspan5309-6" x="538.416" y="800.657">set ended_at</tspan></text></g></svg>