<svg xmlns="http://www.w3.org/2000/svg" xmlns:svg="http://www.w3.org/2000/svg" id="svg2" width="372.047" height="524.409" version="1.1"><defs id="defs4"><clipPath id="clipPath3848" clipPathUnits="userSpaceOnUse"><path id="path3850" d="m 0,0 198.425,0 0,226.772 L 0,226.772 0,0 z"/></clipPath></defs><metadata id="metadata7"/><g id="layer1" transform="translate(0,-527.95143)"><rect id="rect3005" width="347.244" height="498.425" x="12.598" y="540.55" style="fill:[-color-];fill-opacity:1;stroke:none"/><flowRoot style="fill:#000;stroke:none;stroke-opacity:1;stroke-width:1px;stroke-linejoin:miter;stroke-linecap:butt;fill-opacity:1;font-family:GaramondNo8;font-style:normal;font-weight:400;font-size:22px;line-height:125%;letter-spacing:0;word-spacing:0;-inkscape-font-specification:GaramondNo8;font-stretch:normal;font-variant:normal;text-anchor:start;text-align:start" id="flowRoot2989" xml:space="preserve"><flowRegion id="flowRegion2991"><rect id="rect2993" width="229.134" height="72.441" x="75.591" y="106.299"/></flowRegion><flowPara id="flowPara2995"/></flowRoot><g id="g3024" transform="translate(0,3.730469e-6)"><flowRoot id="flowRoot2997" transform="translate(-24.378192,547.87269)" xml:space="preserve" style="font-size:22px;font-style:normal;font-variant:normal;font-weight:400;font-stretch:normal;text-align:start;line-height:125%;letter-spacing:0;word-spacing:0;text-anchor:start;fill:#000;fill-opacity:1;stroke:none;font-family:GaramondNo8;-inkscape-font-specification:GaramondNo8"><flowRegion id="flowRegion2999"><rect id="rect3001" width="272.876" height="134.613" x="75.591" y="48.032"/></flowRegion><flowPara id="flowPara3003" style="font-size:22px;font-style:normal;font-variant:normal;font-weight:400;font-stretch:normal;text-align:center;text-anchor:middle;fill:#fff;font-family:Eagle;-inkscape-font-specification:Eagle">[-host-]:</flowPara><flowPara style="font-size:22px;font-style:normal;font-variant:normal;font-weight:400;font-stretch:normal;text-align:center;text-anchor:middle;fill:#fff;font-family:Eagle;-inkscape-font-specification:Eagle" id="flowPara3022">[-title-]</flowPara></flowRoot><text style="font-size:22px;font-style:normal;font-variant:normal;font-weight:400;font-stretch:normal;text-align:start;line-height:125%;letter-spacing:0;word-spacing:0;text-anchor:start;fill:#000;fill-opacity:1;stroke:none;font-family:Eagle;-inkscape-font-specification:Eagle" id="text3781" x="186.429" y="750.802" xml:space="preserve"><tspan id="tspan3783" x="186.429" y="750.802" style="font-size:18px;text-align:center;text-anchor:middle;fill:#fff">[-day-]</tspan></text><text style="font-size:22px;font-style:normal;font-variant:normal;font-weight:400;font-stretch:normal;text-align:start;line-height:125%;letter-spacing:0;word-spacing:0;text-anchor:start;fill:#000;fill-opacity:1;stroke:none;font-family:GaramondNo8;-inkscape-font-specification:GaramondNo8" id="text3807" x="185.602" y="772.062" xml:space="preserve"><tspan id="tspan3809" x="185.602" y="772.062" style="font-size:16px;font-style:normal;font-variant:normal;font-weight:400;font-stretch:normal;text-align:center;text-anchor:middle;fill:#fff;font-family:Arial;-inkscape-font-specification:Arial">[-datetime-]</tspan></text></g><g id="g3864" transform="matrix(0.58265021,0,0,-0.58265021,128.21749,927.37686)"><g id="g3840" transform="translate(99.2129,204.5254)"><path style="fill:none;stroke:#fff;stroke-width:7.28599977;stroke-linecap:butt;stroke-linejoin:miter;stroke-miterlimit:4;stroke-opacity:1;stroke-dasharray:none" id="path3842" d="M 0,0 -79.245,-109.208 79.244,-109.209 0,0 z"/></g><g style="fill:#fff" id="g3844"><g style="fill:#fff" id="g3846" clip-path="url(#clipPath3848)"><g style="fill:#fff" id="g3852" transform="translate(97.3296,141.6313)"><path style="fill:#fff;fill-opacity:1;fill-rule:nonzero;stroke:none" id="path3854" d="m 0,0 c 0.3,0.637 0.262,0.675 -0.225,0.675 l -5.809,0 c -0.45,0 -0.638,-0.113 -0.75,-0.45 -1.087,-3.074 -5.21,-13.643 -5.21,-13.643 0,0 -4.498,10.682 -5.734,13.793 -0.113,0.262 -0.338,0.3 -0.675,0.3 l -6.372,0 c -0.487,0 -0.487,-0.075 -0.187,-0.675 4.61,-9.895 8.021,-16.679 12.256,-25 0.15,-0.3 0.3,-0.449 0.487,-0.449 0.188,0 0.413,0.224 0.562,0.524 C -7.046,-15.067 -4.76,-10.27 0,0 m 28.316,-23.725 c -2.174,3.523 -4.31,7.308 -5.285,8.845 2.287,1.087 3.486,3.523 3.486,6.972 0,4.61 -3.073,8.583 -8.845,8.583 l -11.619,0 c -0.113,0 -0.3,0.037 -0.3,-0.338 l 0,-24.737 c 0,-0.375 0,-0.337 0.3,-0.337 l 6.146,0 c 0.263,0 0.3,0.037 0.3,0.337 l 0,7.084 4.311,0.075 c 0,0 2.736,-4.31 4.01,-6.747 0.337,-0.674 0.487,-0.749 0.787,-0.749 l 6.634,0 c 0.413,0 0.525,0.262 0.075,1.012 m -8.92,15.329 c 0,-2.174 -1.125,-3.673 -3.149,-3.748 l -3.748,-0.112 0,7.346 3.711,0 c 2.174,0 3.186,-1.499 3.186,-3.486"/></g><g style="fill:#fff" id="g3856" transform="translate(35.0388,17.1631)"><path style="fill:#fff;fill-opacity:1;fill-rule:nonzero;stroke:none" id="path3858" d="m 0,0 c -1.475,2.391 -2.925,4.96 -3.586,6.002 1.551,0.738 2.365,2.391 2.365,4.731 0,3.128 -2.085,5.824 -6.002,5.824 l -7.884,0 c -0.077,0 -0.204,0.026 -0.204,-0.229 l 0,-16.786 c 0,-0.254 0,-0.229 0.204,-0.229 l 4.171,0 c 0.178,0 0.203,0.026 0.203,0.229 l 0,4.807 2.925,0.051 c 0,0 1.857,-2.925 2.721,-4.578 0.229,-0.458 0.331,-0.509 0.534,-0.509 l 4.502,0 C 0.229,-0.687 0.305,-0.509 0,0 m -6.053,10.402 c 0,-1.475 -0.763,-2.492 -2.137,-2.543 l -2.543,-0.076 0,4.985 2.518,0 c 1.475,0 2.162,-1.018 2.162,-2.366 m 26.003,-10.733 0,3.281 c 0,0.331 0,0.331 -0.28,0.331 l -7.452,-0.076 0,2.95 7.121,0 c 0.229,0 0.255,0.051 0.255,0.356 l 0,3.103 c 0,0.305 -0.026,0.356 -0.255,0.356 l -7.121,0 0,2.874 7.274,-0.076 c 0.203,0 0.28,0.127 0.28,0.356 l 0,3.103 c 0,0.305 -0.026,0.33 -0.28,0.33 l -11.496,0 c -0.254,0 -0.229,-0.025 -0.229,-0.254 l 0,-16.634 c 0,-0.305 0.026,-0.356 0.28,-0.356 l 11.623,0 c 0.254,0 0.28,0.051 0.28,0.356 M 42.445,9.944 c 0,3.917 -2.263,6.613 -6.053,6.613 l -7.63,0 c -0.102,0 -0.229,0.026 -0.229,-0.229 l 0,-16.786 c 0,-0.254 0,-0.229 0.229,-0.229 l 4.12,0 c 0.204,0 0.229,0.026 0.229,0.229 l 0,4.095 c 0,0 2.874,0.025 3.612,0.102 3.255,0.381 5.722,2.034 5.722,6.205 m -4.705,0.153 c 0,-1.45 -0.712,-2.569 -2.492,-2.645 l -2.137,-0.076 0,5.392 2.086,0 c 1.551,0 2.543,-0.967 2.543,-2.671 m 26.797,-4.527 0,10.809 c 0,0.178 0,0.178 -0.128,0.178 l -4.171,0 c -0.152,0 -0.152,-0.025 -0.152,-0.178 l 0,-11.343 c 0,-1.73 -1.45,-2.416 -2.671,-2.416 -1.246,0 -2.67,0.712 -2.67,2.416 l 0,11.318 c 0,0.203 0,0.203 -0.178,0.203 l -4.273,0 c -0.127,0 -0.127,0 -0.127,-0.152 l 0,-10.581 c 0,-4.196 2.34,-6.943 7.197,-6.943 5.062,0 7.173,2.594 7.173,6.689 m 23.82,-1.577 c 0,2.009 -1.348,3.993 -3.535,4.222 1.984,0.56 3.052,1.958 3.052,3.815 0,2.849 -1.882,4.527 -5.01,4.527 l -8.902,0 c -0.229,0 -0.305,-0.051 -0.305,-0.254 l 0,-16.634 c 0,-0.33 0.025,-0.356 0.229,-0.356 l 9.613,0 c 3.027,0 4.858,1.882 4.858,4.68 m -5.112,7.376 c 0,-1.018 -0.585,-1.628 -1.628,-1.628 l -3.408,0 0,3.255 3.408,0 c 1.043,0 1.628,-0.559 1.628,-1.627 m 0.382,-6.638 c 0,-1.196 -0.687,-1.857 -1.755,-1.857 l -3.663,0 0,3.739 3.663,0 c 1.017,0 1.755,-0.789 1.755,-1.882 m 24.301,-5.189 0,3.688 c 0,0.204 -0.025,0.254 -0.229,0.254 l -6.384,-0.127 0,12.971 c 0,0.204 -0.025,0.229 -0.229,0.229 l -4.12,0 c -0.229,0 -0.229,0.026 -0.229,-0.229 l 0,-16.786 c 0,-0.254 0,-0.229 0.229,-0.229 l 10.758,0 c 0.204,0 0.204,0.026 0.204,0.229 m 12.022,0 0,16.786 c 0,0.204 -0.025,0.229 -0.254,0.229 l -4.222,0 c -0.229,0 -0.229,0.026 -0.229,-0.229 l 0,-16.786 c 0,-0.254 0,-0.229 0.229,-0.229 l 4.222,0 c 0.229,0 0.254,0.026 0.254,0.229 m 25.311,4.604 c 0.051,0.152 0.026,0.279 -0.229,0.33 l -3.815,1.043 c -0.203,0.051 -0.229,-0.051 -0.305,-0.178 -0.61,-1.297 -1.831,-2.136 -3.56,-2.136 -2.137,0 -4.248,1.449 -4.248,4.628 0,2.722 1.628,4.731 4.171,4.731 1.755,0 2.976,-0.788 3.713,-2.314 0.051,-0.128 0.077,-0.178 0.229,-0.128 l 3.79,1.476 c 0.102,0.05 0.203,0.152 0.076,0.457 -1.144,2.595 -3.713,4.858 -7.91,4.858 -4.984,0 -8.901,-3.84 -8.901,-9.054 0,-4.883 3.611,-8.978 9.029,-8.978 3.967,0 6.816,2.492 7.96,5.265"/></g><g style="fill:#fff" id="g3860" transform="translate(66.3839,64.0502)"><path style="fill:#fff;fill-opacity:1;fill-rule:nonzero;stroke:none" id="path3862" d="m 0,0 c 0.203,0.432 0.178,0.458 -0.153,0.458 l -3.942,0 c -0.305,0 -0.432,-0.076 -0.508,-0.305 -0.738,-2.086 -3.536,-9.258 -3.536,-9.258 0,0 -3.052,7.248 -3.891,9.359 -0.076,0.178 -0.229,0.204 -0.458,0.204 l -4.323,0 c -0.331,0 -0.331,-0.051 -0.128,-0.458 3.129,-6.714 5.443,-11.318 8.317,-16.964 0.102,-0.204 0.204,-0.305 0.331,-0.305 0.127,0 0.279,0.152 0.381,0.356 C -4.781,-10.224 -3.23,-6.969 0,0 m 23.612,-8.215 c 0,4.985 -3.891,9.029 -9.029,9.029 -5.137,0 -9.029,-4.044 -9.029,-9.029 0,-4.985 3.892,-9.003 9.029,-9.003 5.138,0 9.029,4.018 9.029,9.003 m -4.756,0 c 0,-2.62 -1.577,-4.654 -4.273,-4.654 -2.747,0 -4.273,2.034 -4.273,4.654 0,2.62 1.526,4.68 4.273,4.68 2.696,0 4.273,-2.06 4.273,-4.68 m 17.788,-8.342 0,16.786 c 0,0.203 -0.026,0.229 -0.254,0.229 l -4.222,0 c -0.229,0 -0.229,0.025 -0.229,-0.229 l 0,-16.786 c 0,-0.254 0,-0.229 0.229,-0.229 l 4.222,0 c 0.228,0 0.254,0.025 0.254,0.229 m 25.311,4.603 c 0.051,0.153 0.025,0.28 -0.229,0.331 l -3.815,1.043 c -0.203,0.051 -0.229,-0.051 -0.305,-0.178 -0.611,-1.297 -1.831,-2.137 -3.561,-2.137 -2.136,0 -4.247,1.45 -4.247,4.629 0,2.722 1.628,4.731 4.171,4.731 1.755,0 2.976,-0.789 3.713,-2.315 0.051,-0.127 0.076,-0.178 0.229,-0.127 l 3.79,1.475 c 0.101,0.051 0.203,0.153 0.076,0.458 -1.145,2.594 -3.713,4.858 -7.91,4.858 -4.985,0 -8.902,-3.841 -8.902,-9.054 0,-4.884 3.612,-8.978 9.029,-8.978 3.968,0 6.816,2.492 7.961,5.264 m 19.98,-4.476 0,3.281 c 0,0.331 0,0.331 -0.28,0.331 l -7.452,-0.077 0,2.951 7.122,0 c 0.229,0 0.254,0.05 0.254,0.356 l 0,3.102 c 0,0.306 -0.025,0.357 -0.254,0.357 l -7.122,0 0,2.874 7.274,-0.077 c 0.204,0 0.28,0.127 0.28,0.356 l 0,3.103 c 0,0.305 -0.025,0.331 -0.28,0.331 l -11.496,0 c -0.254,0 -0.229,-0.026 -0.229,-0.255 l 0,-16.633 c 0,-0.305 0.026,-0.356 0.28,-0.356 l 11.623,0 c 0.255,0 0.28,0.051 0.28,0.356"/></g></g></g></g><g id="g3036"><text style="font-size:22px;font-style:normal;font-variant:normal;font-weight:400;font-stretch:normal;text-align:start;line-height:129.99999523%;letter-spacing:0;word-spacing:0;text-anchor:start;fill:#fff;fill-opacity:1;stroke:none;font-family:GaramondNo8;-inkscape-font-specification:GaramondNo8" id="text3785" x="186.03" y="962.339" xml:space="preserve"><tspan id="tspan3035" x="185.905" y="962.339" style="font-size:18px;font-style:normal;font-variant:normal;font-weight:400;font-stretch:normal;text-align:center;line-height:129.99999523%;letter-spacing:-.25px;text-anchor:middle;fill:#fff;font-family:Eagle;-inkscape-font-specification:Eagle">HOME TO THE</tspan><tspan id="tspan3025" x="185.905" y="985.739" style="font-size:18px;font-style:normal;font-variant:normal;font-weight:400;font-stretch:normal;text-align:center;line-height:129.99999523%;letter-spacing:-.25px;text-anchor:middle;fill:#fff;font-family:Eagle;-inkscape-font-specification:Eagle">SPOKEN</tspan><tspan id="tspan3027" x="185.905" y="1009.139" style="font-size:18px;font-style:normal;font-variant:normal;font-weight:400;font-stretch:normal;text-align:center;line-height:129.99999523%;letter-spacing:-.25px;text-anchor:middle;fill:#fff;font-family:Eagle;-inkscape-font-specification:Eagle">WORD</tspan></text><path style="fill:#fff;stroke:#fff;stroke-width:2.31100011;stroke-linecap:butt;stroke-linejoin:miter;stroke-miterlimit:4;stroke-opacity:1;stroke-dasharray:none" id="path3948" d="m 151.53699,990.4787 68.97326,0"/><path style="fill:#fff;stroke:#fff;stroke-width:2.31100011;stroke-linecap:butt;stroke-linejoin:miter;stroke-miterlimit:4;stroke-opacity:1;stroke-dasharray:none" id="path3948-9" d="m 160.51416,1013.8994 51.01893,0"/><path style="fill:#fff;stroke:#fff;stroke-width:2.3108983;stroke-linecap:butt;stroke-linejoin:miter;stroke-miterlimit:4;stroke-opacity:1;stroke-dasharray:none" id="path3948-5" d="m 127.75779,968.00013 116.53167,0"/></g></g></svg>