<svg xmlns="http://www.w3.org/2000/svg" xmlns:xlink="http://www.w3.org/1999/xlink" width="403pt" height="824" viewBox="0 0 403.19 618"><g id="graph1" class="graph" transform="scale(1 1) rotate(0) translate(4 614)"><title>G</title><polygon fill="#fff" stroke="#fff" points="-4 5 -4 -614 400.187 -614 400.187 5 -4 5"/><g id="node1" class="node"><title>offline</title><ellipse cx="168.187" cy="-592" fill="none" stroke="#000" rx="27" ry="18"/><text x="168.187" y="-589.8" font-family="Bitstream Vera Sans" font-size="8" text-anchor="middle">offline</text></g><g id="node3" class="node"><title>available</title><ellipse cx="168.187" cy="-510" fill="none" stroke="#000" rx="31.177" ry="18"/><text x="168.187" y="-507.8" font-family="Bitstream Vera Sans" font-size="8" text-anchor="middle">available</text></g><g id="edge2" class="edge"><title>offline-&gt;available</title><path fill="none" stroke="#000" d="M168.187,-573.802C168.187,-563.398 168.187,-550.122 168.187,-538.377"/><polygon fill="#000" stroke="#000" points="168.187 -528.148 172.688 -538.148 168.188 -533.148 168.188 -538.148 168.188 -538.148 168.188 -538.148 168.188 -533.148 163.688 -538.148 168.187 -528.148 168.187 -528.148"/><text x="206.187" y="-548.8" font-family="Bitstream Vera Sans" font-size="8" text-anchor="middle">become_available</text></g><g id="node5" class="node"><title>provisioning</title><ellipse cx="168.187" cy="-428" fill="none" stroke="#000" rx="38.763" ry="18"/><text x="168.187" y="-425.8" font-family="Bitstream Vera Sans" font-size="8" text-anchor="middle">provisioning</text></g><g id="edge4" class="edge"><title>available-&gt;provisioning</title><path fill="none" stroke="#000" d="M168.187,-491.802C168.187,-481.398 168.187,-468.122 168.187,-456.377"/><polygon fill="#000" stroke="#000" points="168.187 -446.148 172.688 -456.148 168.188 -451.148 168.188 -456.148 168.188 -456.148 168.188 -456.148 168.188 -451.148 163.688 -456.148 168.187 -446.148 168.187 -446.148"/><text x="206.687" y="-466.8" font-family="Bitstream Vera Sans" font-size="8" text-anchor="middle">start_provisioning</text></g><g id="node7" class="node"><title>awaiting_stream</title><ellipse cx="115.187" cy="-264" fill="none" stroke="#000" rx="50.23" ry="18"/><text x="115.187" y="-261.8" font-family="Bitstream Vera Sans" font-size="8" text-anchor="middle">awaiting_stream</text></g><g id="edge6" class="edge"><title>provisioning-&gt;awaiting_stream</title><path fill="none" stroke="#000" d="M153,-411.163C142.97,-398.984 130.544,-381.631 124.187,-364 115.869,-340.926 113.976,-313.006 113.958,-292.538"/><polygon fill="#000" stroke="#000" points="114.104 -282.295 118.461 -292.358 114.032 -287.295 113.961 -292.294 113.961 -292.294 113.961 -292.294 114.032 -287.295 109.462 -292.23 114.104 -282.295 114.104 -282.295"/><text x="172.187" y="-343.8" font-family="Bitstream Vera Sans" font-size="8" text-anchor="middle">complete_provisioning</text></g><g id="node9" class="node"><title>device_required</title><ellipse cx="277.187" cy="-346" fill="none" stroke="#000" rx="47.997" ry="18"/><text x="277.187" y="-343.8" font-family="Bitstream Vera Sans" font-size="8" text-anchor="middle">device_required</text></g><g id="edge8" class="edge"><title>provisioning-&gt;device_required</title><path fill="none" stroke="#000" d="M163.496,-409.874C162.212,-400.713 162.48,-389.896 168.187,-382 170.185,-379.237 201.201,-369.139 229.637,-360.338"/><polygon fill="#000" stroke="#000" points="239.536 -357.294 231.3 -364.535 234.757 -358.763 229.977 -360.233 229.977 -360.233 229.977 -360.233 234.757 -358.763 228.655 -355.932 239.536 -357.294 239.536 -357.294"/><text x="216.187" y="-384.8" font-family="Bitstream Vera Sans" font-size="8" text-anchor="middle">complete_provisioning</text></g><g id="edge20" class="edge"><title>awaiting_stream-&gt;offline</title><path fill="none" stroke="#000" d="M98.8401,-281.012C85.6184,-296.614 69.1875,-321.026 69.1875,-346 69.1875,-510 69.1875,-510 69.1875,-510 69.1875,-544.788 105.893,-567.614 134.604,-580.147"/><polygon fill="#000" stroke="#000" points="143.969 -584.005 133.009 -584.357 139.346 -582.1 134.723 -580.196 134.723 -580.196 134.723 -580.196 139.346 -582.1 136.437 -576.035 143.969 -584.005 143.969 -584.005"/><text x="90.188" y="-425.8" font-family="Bitstream Vera Sans" font-size="8" text-anchor="middle">shutdown</text></g><g id="edge26" class="edge"><title>awaiting_stream-&gt;awaiting_stream</title><path fill="none" stroke="#000" d="M160.952,-271.454C173.556,-271.094 183.187,-268.609 183.187,-264 183.187,-260.759 178.426,-258.568 171.217,-257.428"/><polygon fill="#000" stroke="#000" points="160.952 -256.546 171.301 -252.919 165.933 -256.974 170.915 -257.402 170.915 -257.402 170.915 -257.402 165.933 -256.974 170.53 -261.886 160.952 -256.546 160.952 -256.546"/><text x="212.187" y="-261.8" font-family="Bitstream Vera Sans" font-size="8" text-anchor="middle">select_device</text></g><g id="node12" class="node"><title>connected</title><ellipse cx="58.188" cy="-182" fill="none" stroke="#000" rx="34.139" ry="18"/><text x="58.188" y="-179.8" font-family="Bitstream Vera Sans" font-size="8" text-anchor="middle">connected</text></g><g id="edge12" class="edge"><title>awaiting_stream-&gt;connected</title><path fill="none" stroke="#000" d="M82.3781,-250.207C73.2673,-244.693 64.4404,-237.378 59.1875,-228 56.1865,-222.642 54.8977,-216.355 54.5634,-210.178"/><polygon fill="#000" stroke="#000" points="54.768 -200.073 59.065 -210.162 54.667 -205.072 54.565 -210.071 54.565 -210.071 54.565 -210.071 54.667 -205.072 50.066 -209.979 54.768 -200.073 54.768 -200.073"/><text x="76.188" y="-220.8" font-family="Bitstream Vera Sans" font-size="8" text-anchor="middle">connect</text></g><g id="edge18" class="edge"><title>device_required-&gt;offline</title><path fill="none" stroke="#000" d="M280.082,-364.172C285.29,-403.469 291.968,-497.515 248.187,-556 237.53,-570.237 219.952,-578.976 203.983,-584.271"/><polygon fill="#000" stroke="#000" points="194.324 -587.14 202.628 -579.979 199.117 -585.716 203.91 -584.292 203.91 -584.292 203.91 -584.292 199.117 -585.716 205.191 -588.606 194.324 -587.14 194.324 -587.14"/><text x="302.187" y="-466.8" font-family="Bitstream Vera Sans" font-size="8" text-anchor="middle">shutdown</text></g><g id="edge10" class="edge"><title>device_required-&gt;awaiting_stream</title><path fill="none" stroke="#000" d="M248.598,-331.529C222.124,-318.128 182.559,-298.102 153.387,-283.335"/><polygon fill="#000" stroke="#000" points="144.31 -278.741 155.264 -279.242 148.771 -280.999 153.232 -283.257 153.232 -283.257 153.232 -283.257 148.771 -280.999 151.2 -287.272 144.31 -278.741 144.31 -278.741"/><text x="234.187" y="-302.8" font-family="Bitstream Vera Sans" font-size="8" text-anchor="middle">select_device</text></g><g id="edge22" class="edge"><title>connected-&gt;offline</title><path fill="none" stroke="#000" d="M42.614,-198.105C29.269,-213.656 12.1875,-238.536 12.1875,-264 12.1875,-510 12.1875,-510 12.1875,-510 12.1875,-563.478 84.9042,-582.156 131.045,-588.624"/><polygon fill="#000" stroke="#000" points="141.014 -589.892 130.526 -593.095 136.054 -589.262 131.094 -588.631 131.094 -588.631 131.094 -588.631 136.054 -589.262 131.662 -584.167 141.014 -589.892 141.014 -589.892"/><text x="33.188" y="-384.8" font-family="Bitstream Vera Sans" font-size="8" text-anchor="middle">shutdown</text></g><g id="edge28" class="edge"><title>connected-&gt;awaiting_stream</title><path fill="none" stroke="#000" d="M75.7854,-197.845C81.7721,-203.791 88.2031,-210.849 93.1875,-218 97.1073,-223.624 100.669,-230.054 103.73,-236.289"/><polygon fill="#000" stroke="#000" points="108.108 -245.781 99.833 -238.585 106.014 -241.241 103.92 -236.7 103.92 -236.7 103.92 -236.7 106.014 -241.241 108.006 -234.816 108.108 -245.781 108.108 -245.781"/><text x="128.187" y="-220.8" font-family="Bitstream Vera Sans" font-size="8" text-anchor="middle">select_device</text></g><g id="node13" class="node"><title>disconnected</title><ellipse cx="169.187" cy="-18" fill="none" stroke="#000" rx="42.147" ry="18"/><text x="169.187" y="-15.8" font-family="Bitstream Vera Sans" font-size="8" text-anchor="middle">disconnected</text></g><g id="edge16" class="edge"><title>connected-&gt;disconnected</title><path fill="none" stroke="#000" d="M39.6967,-166.452C17.9242,-146.221 -12.9906,-110.134 6.18748,-82 19.85,-61.9577 79.8106,-42.0351 123.044,-29.87"/><polygon fill="#000" stroke="#000" points="132.812 -27.172 124.371 -34.172 127.993 -28.503 123.173 -29.834 123.173 -29.834 123.173 -29.834 127.993 -28.503 121.975 -25.497 132.812 -27.172 132.812 -27.172"/><text x="29.188" y="-97.8" font-family="Bitstream Vera Sans" font-size="8" text-anchor="middle">disconnect</text></g><g id="node24" class="node"><title>disconnect_required</title><ellipse cx="169.187" cy="-100" fill="none" stroke="#000" rx="58.967" ry="18"/><text x="169.187" y="-97.8" font-family="Bitstream Vera Sans" font-size="8" text-anchor="middle">disconnect_required</text></g><g id="edge32" class="edge"><title>connected-&gt;disconnect_required</title><path fill="none" stroke="#000" d="M78.0321,-167.34C94.7626,-154.981 118.99,-137.083 138.263,-122.845"/><polygon fill="#000" stroke="#000" points="146.453 -116.795 141.084 -126.356 142.431 -119.766 138.41 -122.737 138.41 -122.737 138.41 -122.737 142.431 -119.766 135.736 -119.117 146.453 -116.795 146.453 -116.795"/><text x="162.187" y="-138.8" font-family="Bitstream Vera Sans" font-size="8" text-anchor="middle">require_disconnect</text></g><g id="edge24" class="edge"><title>disconnected-&gt;offline</title><path fill="none" stroke="#000" d="M206.423,-26.6162C260.188,-40.1555 353.187,-68.1745 353.187,-100 353.187,-510 353.187,-510 353.187,-510 353.187,-542.344 257.478,-570.583 203.741,-583.888"/><polygon fill="#000" stroke="#000" points="193.911 -586.272 202.569 -579.542 198.77 -585.094 203.629 -583.915 203.629 -583.915 203.629 -583.915 198.77 -585.094 204.69 -588.289 193.911 -586.272 193.911 -586.272"/><text x="374.187" y="-302.8" font-family="Bitstream Vera Sans" font-size="8" text-anchor="middle">shutdown</text></g><g id="edge30" class="edge"><title>disconnected-&gt;awaiting_stream</title><path fill="none" stroke="#000" d="M193.548,-32.8158C202.216,-38.7618 211.679,-46.0847 219.187,-54 239.524,-75.4367 245.984,-89.7918 237.187,-118 219.496,-174.728 201.938,-184.752 161.187,-228 156.806,-232.65 151.795,-237.191 146.73,-241.396"/><polygon fill="#000" stroke="#000" points="138.809 -247.694 143.836 -237.948 142.723 -244.582 146.637 -241.471 146.637 -241.471 146.637 -241.471 142.723 -244.582 149.437 -244.993 138.809 -247.694 138.809 -247.694"/><text x="259.187" y="-138.8" font-family="Bitstream Vera Sans" font-size="8" text-anchor="middle">select_device</text></g><g id="edge14" class="edge"><title>disconnected-&gt;connected</title><path fill="none" stroke="#000" d="M136.246,-29.5045C112.811,-39.5321 82.8157,-56.5154 67.1875,-82 54.0131,-103.483 52.8486,-132.595 54.3307,-153.867"/><polygon fill="#000" stroke="#000" points="55.263 -163.903 49.857 -154.362 54.801 -158.924 54.338 -153.946 54.338 -153.946 54.338 -153.946 54.801 -158.924 58.819 -153.529 55.263 -163.903 55.263 -163.903"/><text x="84.188" y="-97.8" font-family="Bitstream Vera Sans" font-size="8" text-anchor="middle">connect</text></g><g id="edge34" class="edge"><title>disconnect_required-&gt;disconnected</title><path fill="none" stroke="#000" d="M169.187,-81.8015C169.187,-71.3976 169.187,-58.1215 169.187,-46.3768"/><polygon fill="#000" stroke="#000" points="169.187 -36.148 173.688 -46.148 169.188 -41.148 169.188 -46.148 169.188 -46.148 169.188 -46.148 169.188 -41.148 164.688 -46.148 169.187 -36.148 169.187 -36.148"/><text x="192.187" y="-56.8" font-family="Bitstream Vera Sans" font-size="8" text-anchor="middle">disconnect</text></g></g></svg>