<svg xmlns="http://www.w3.org/2000/svg" xmlns:xlink="http://www.w3.org/1999/xlink" width="608" height="704" viewBox="0 0 456 528"><g id="graph1" class="graph" transform="scale(1 1) rotate(0) translate(4 524)"><title>G</title><polygon fill="#fff" stroke="#fff" points="-4 5 -4 -524 453 -524 453 5 -4 5"/><g id="node1" class="node"><title>*1</title><text x="27" y="-425.8" font-family="Bitstream Vera Sans" font-size="8" text-anchor="middle">*1</text></g><g id="node9" class="node"><title>offline</title><ellipse cx="92" cy="-346" fill="none" stroke="#000" rx="27" ry="18"/><text x="92" y="-343.8" font-family="Bitstream Vera Sans" font-size="8" text-anchor="middle">offline</text></g><g id="edge40" class="edge"><title>*1-&gt;offline</title><path fill="none" stroke="#000" d="M29.2071,-409.707C30.9926,-400.717 34.2109,-390.103 40,-382 45.6249,-374.127 53.5392,-367.408 61.5001,-361.982"/><polygon fill="#000" stroke="#000" points="70.051 -356.608 63.979 -365.739 65.817 -359.269 61.584 -361.929 61.584 -361.929 61.584 -361.929 65.817 -359.269 59.19 -358.119 70.051 -356.608 70.051 -356.608"/><text x="61" y="-384.8" font-family="Bitstream Vera Sans" font-size="8" text-anchor="middle">shutdown</text></g><g id="node2" class="node"><title>*2</title><text x="302" y="-425.8" font-family="Bitstream Vera Sans" font-size="8" text-anchor="middle">*2</text></g><g id="node21" class="node"><title>starting</title><ellipse cx="302" cy="-346" fill="none" stroke="#000" rx="28.867" ry="18"/><text x="302" y="-343.8" font-family="Bitstream Vera Sans" font-size="8" text-anchor="middle">starting</text></g><g id="edge42" class="edge"><title>*2-&gt;starting</title><path fill="none" stroke="#000" d="M302,-409.802C302,-399.398 302,-386.122 302,-374.377"/><polygon fill="#000" stroke="#000" points="302 -364.148 306.5 -374.148 302 -369.148 302 -374.148 302 -374.148 302 -374.148 302 -369.148 297.5 -374.148 302 -364.148 302 -364.148"/><text x="317" y="-384.8" font-family="Bitstream Vera Sans" font-size="8" text-anchor="middle">restart</text></g><g id="node3" class="node"><title/></g><g id="node5" class="node"><title>unpaired</title><ellipse cx="145" cy="-428" fill="none" stroke="#000" rx="31.177" ry="18"/><text x="145" y="-425.8" font-family="Bitstream Vera Sans" font-size="8" text-anchor="middle">unpaired</text></g><g id="edge2" class="edge"><title>-&gt;unpaired</title><path fill="none" stroke="#000" d="M145,-483.708C145,-475.464 145,-465.538 145,-456.362"/><polygon fill="#000" stroke="#000" points="145 -446.082 149.5 -456.082 145 -451.082 145 -456.082 145 -456.082 145 -456.082 145 -451.082 140.5 -456.082 145 -446.082 145 -446.082"/></g><g id="node7" class="node"><title>pairing</title><ellipse cx="176" cy="-346" fill="none" stroke="#000" rx="27" ry="18"/><text x="176" y="-343.8" font-family="Bitstream Vera Sans" font-size="8" text-anchor="middle">pairing</text></g><g id="edge4" class="edge"><title>unpaired-&gt;pairing</title><path fill="none" stroke="#000" d="M156.404,-410.977C159.898,-405.154 163.481,-398.473 166,-392 168.149,-386.478 169.882,-380.394 171.264,-374.51"/><polygon fill="#000" stroke="#000" points="173.383 -364.298 175.757 -375.004 172.367 -369.194 171.351 -374.089 171.351 -374.089 171.351 -374.089 172.367 -369.194 166.945 -373.175 173.383 -364.298 173.383 -364.298"/><text x="187" y="-384.8" font-family="Bitstream Vera Sans" font-size="8" text-anchor="middle">register</text></g><g id="edge24" class="edge"><title>unpaired-&gt;offline</title><path fill="none" stroke="#000" d="M118.838,-418.034C107.525,-412.262 95.4245,-403.768 89,-392 86.0519,-386.6 85.1449,-380.295 85.319,-374.116"/><polygon fill="#000" stroke="#000" points="86.463 -364.017 89.809 -374.46 85.9 -368.985 85.337 -373.953 85.337 -373.953 85.337 -373.953 85.9 -368.985 80.866 -373.446 86.463 -364.017 86.463 -364.017"/><text x="125.5" y="-384.8" font-family="Bitstream Vera Sans" font-size="8" text-anchor="middle">complete_pairing</text></g><g id="edge6" class="edge"><title>pairing-&gt;pairing</title><path fill="none" stroke="#000" d="M200.989,-353.41C211.77,-354.017 221,-351.547 221,-346 221,-342.36 217.025,-340.045 211.245,-339.055"/><polygon fill="#000" stroke="#000" points="200.989 -338.59 211.183 -334.547 205.984 -338.816 210.979 -339.043 210.979 -339.043 210.979 -339.043 205.984 -338.816 210.775 -343.538 200.989 -338.59 200.989 -338.59"/><text x="238" y="-343.8" font-family="Bitstream Vera Sans" font-size="8" text-anchor="middle">register</text></g><g id="node11" class="node"><title>idle</title><ellipse cx="176" cy="-264" fill="none" stroke="#000" rx="27" ry="18"/><text x="176" y="-261.8" font-family="Bitstream Vera Sans" font-size="8" text-anchor="middle">idle</text></g><g id="edge22" class="edge"><title>pairing-&gt;idle</title><path fill="none" stroke="#000" d="M176,-327.802C176,-317.398 176,-304.122 176,-292.377"/><polygon fill="#000" stroke="#000" points="176 -282.148 180.5 -292.148 176 -287.148 176 -292.148 176 -292.148 176 -292.148 176 -287.148 171.5 -292.148 176 -282.148 176 -282.148"/><text x="212.5" y="-302.8" font-family="Bitstream Vera Sans" font-size="8" text-anchor="middle">complete_pairing</text></g><g id="edge8" class="edge"><title>offline-&gt;idle</title><path fill="none" stroke="#000" d="M107.23,-330.562C116.141,-321.583 127.641,-310.083 138,-300 142.701,-295.424 147.772,-290.567 152.631,-285.95"/><polygon fill="#000" stroke="#000" points="160.008 -278.968 155.838 -289.11 156.377 -282.405 152.745 -285.842 152.745 -285.842 152.745 -285.842 156.377 -282.405 149.652 -282.574 160.008 -278.968 160.008 -278.968"/><text x="155" y="-302.8" font-family="Bitstream Vera Sans" font-size="8" text-anchor="middle">register</text></g><g id="edge10" class="edge"><title>idle-&gt;idle</title><path fill="none" stroke="#000" d="M200.989,-271.41C211.77,-272.017 221,-269.547 221,-264 221,-260.36 217.025,-258.045 211.245,-257.055"/><polygon fill="#000" stroke="#000" points="200.989 -256.59 211.183 -252.547 205.984 -256.816 210.979 -257.043 210.979 -257.043 210.979 -257.043 205.984 -256.816 210.775 -261.538 200.989 -256.59 200.989 -256.59"/><text x="238" y="-261.8" font-family="Bitstream Vera Sans" font-size="8" text-anchor="middle">register</text></g><g id="node13" class="node"><title>starting_stream</title><ellipse cx="91" cy="-182" fill="none" stroke="#000" rx="49.075" ry="18"/><text x="91" y="-179.8" font-family="Bitstream Vera Sans" font-size="8" text-anchor="middle">starting_stream</text></g><g id="edge26" class="edge"><title>idle-&gt;starting_stream</title><path fill="none" stroke="#000" d="M151.212,-256.637C136.219,-251.013 117.785,-241.837 106,-228 101.639,-222.88 98.539,-216.464 96.3373,-210.062"/><polygon fill="#000" stroke="#000" points="93.565 -200.203 100.604 -208.612 94.919 -205.017 96.272 -209.83 96.272 -209.83 96.272 -209.83 94.919 -205.017 91.94 -211.048 93.565 -200.203 93.565 -200.203"/><text x="134" y="-220.8" font-family="Bitstream Vera Sans" font-size="8" text-anchor="middle">start_stream</text></g><g id="node15" class="node"><title>streaming</title><ellipse cx="176" cy="-100" fill="none" stroke="#000" rx="34.139" ry="18"/><text x="176" y="-97.8" font-family="Bitstream Vera Sans" font-size="8" text-anchor="middle">streaming</text></g><g id="edge28" class="edge"><title>idle-&gt;streaming</title><path fill="none" stroke="#000" d="M176,-245.823C176,-217.377 176,-162.115 176,-128.39"/><polygon fill="#000" stroke="#000" points="176 -118.259 180.5 -128.259 176 -123.259 176 -128.259 176 -128.259 176 -128.259 176 -123.259 171.5 -128.259 176 -118.259 176 -118.259"/><text x="209.5" y="-179.8" font-family="Bitstream Vera Sans" font-size="8" text-anchor="middle">stream_started</text></g><g id="edge12" class="edge"><title>starting_stream-&gt;idle</title><path fill="none" stroke="#000" d="M63.445,-196.924C50.9899,-205.637 40.718,-217.044 49,-228 59.9586,-242.497 106.081,-252.848 139.592,-258.627"/><polygon fill="#000" stroke="#000" points="149.535 -260.273 138.934 -263.079 144.602 -259.456 139.669 -258.639 139.669 -258.639 139.669 -258.639 144.602 -259.456 140.404 -254.2 149.535 -260.273 149.535 -260.273"/><text x="66" y="-220.8" font-family="Bitstream Vera Sans" font-size="8" text-anchor="middle">register</text></g><g id="edge30" class="edge"><title>starting_stream-&gt;streaming</title><path fill="none" stroke="#000" d="M88.4721,-163.928C88.1456,-154.782 89.3203,-143.962 95,-136 104.311,-122.949 119.458,-114.558 134.149,-109.196"/><polygon fill="#000" stroke="#000" points="143.672 -106.091 135.559 -113.469 138.918 -107.641 134.164 -109.191 134.164 -109.191 134.164 -109.191 138.918 -107.641 132.769 -104.913 143.672 -106.091 143.672 -106.091"/><text x="128.5" y="-138.8" font-family="Bitstream Vera Sans" font-size="8" text-anchor="middle">stream_started</text></g><g id="edge14" class="edge"><title>streaming-&gt;idle</title><path fill="none" stroke="#000" d="M199.301,-113.494C216.036,-124.646 237.286,-142.166 247,-164 253.504,-178.619 253.504,-185.381 247,-200 238.349,-219.446 220.546,-235.47 204.933,-246.621"/><polygon fill="#000" stroke="#000" points="196.556 -252.305 202.304 -242.967 200.693 -249.498 204.831 -246.69 204.831 -246.69 204.831 -246.69 200.693 -249.498 207.358 -250.414 196.556 -252.305 196.556 -252.305"/><text x="268" y="-179.8" font-family="Bitstream Vera Sans" font-size="8" text-anchor="middle">register</text></g><g id="node17" class="node"><title>restarting_stream</title><ellipse cx="77" cy="-18" fill="none" stroke="#000" rx="53.773" ry="18"/><text x="77" y="-15.8" font-family="Bitstream Vera Sans" font-size="8" text-anchor="middle">restarting_stream</text></g><g id="edge36" class="edge"><title>streaming-&gt;restarting_stream</title><path fill="none" stroke="#000" d="M170.703,-82.086C167.201,-72.7618 161.796,-61.7278 154,-54 146.056,-46.1255 136.066,-39.7581 125.938,-34.6957"/><polygon fill="#000" stroke="#000" points="116.653 -30.407 127.618 -30.515 121.192 -32.504 125.732 -34.6 125.732 -34.6 125.732 -34.6 121.192 -32.504 123.845 -38.686 116.653 -30.407 116.653 -30.407"/><text x="194.5" y="-56.8" font-family="Bitstream Vera Sans" font-size="8" text-anchor="middle">restart_stream</text></g><g id="node19" class="node"><title>stopping_stream</title><ellipse cx="341" cy="-18" fill="none" stroke="#000" rx="50.885" ry="18"/><text x="341" y="-15.8" font-family="Bitstream Vera Sans" font-size="8" text-anchor="middle">stopping_stream</text></g><g id="edge32" class="edge"><title>streaming-&gt;stopping_stream</title><path fill="none" stroke="#000" d="M201.06,-87.546C227.858,-74.2282 270.708,-52.9332 301.939,-37.4124"/><polygon fill="#000" stroke="#000" points="311.227 -32.796 304.275 -41.276 306.75 -35.021 302.272 -37.247 302.272 -37.247 302.272 -37.247 306.75 -35.021 300.269 -33.217 311.227 -32.796 311.227 -32.796"/><text x="295.5" y="-56.8" font-family="Bitstream Vera Sans" font-size="8" text-anchor="middle">stop_stream</text></g><g id="edge16" class="edge"><title>restarting_stream-&gt;idle</title><path fill="none" stroke="#000" d="M65.6023,-35.6326C40.7946,-76.389 -11.652,-177.487 43,-228 57.0097,-240.949 105.191,-251.737 139.524,-258.03"/><polygon fill="#000" stroke="#000" points="149.682 -259.836 139.048 -262.516 144.759 -258.961 139.836 -258.086 139.836 -258.086 139.836 -258.086 144.759 -258.961 140.624 -253.655 149.682 -259.836 149.682 -259.836"/><text x="40" y="-138.8" font-family="Bitstream Vera Sans" font-size="8" text-anchor="middle">register</text></g><g id="edge38" class="edge"><title>restarting_stream-&gt;streaming</title><path fill="none" stroke="#000" d="M70.7593,-36.0645C68.7777,-45.2087 68.3607,-56.0295 74,-64 81.3968,-74.4546 109.866,-83.9882 134.854,-90.6144"/><polygon fill="#000" stroke="#000" points="144.563 -93.095 133.76 -94.98 139.719 -91.857 134.874 -90.62 134.874 -90.62 134.874 -90.62 139.719 -91.857 135.988 -86.26 144.563 -93.095 144.563 -93.095"/><text x="112" y="-56.8" font-family="Bitstream Vera Sans" font-size="8" text-anchor="middle">stream_restarted</text></g><g id="edge34" class="edge"><title>stopping_stream-&gt;idle</title><path fill="none" stroke="#000" d="M340.016,-36.1352C337.28,-71.1373 327.034,-149.042 289,-200 269.475,-226.159 235.892,-243.2 210.397,-253.069"/><polygon fill="#000" stroke="#000" points="200.723 -256.625 208.557 -248.951 205.416 -254.9 210.109 -253.175 210.109 -253.175 210.109 -253.175 205.416 -254.9 211.662 -257.399 200.723 -256.625 200.723 -256.625"/><text x="355" y="-138.8" font-family="Bitstream Vera Sans" font-size="8" text-anchor="middle">stream_stopped</text></g><g id="edge18" class="edge"><title>stopping_stream-&gt;idle</title><path fill="none" stroke="#000" d="M360.954,-34.7832C386.361,-58.3206 425.452,-103.08 412,-146 398.726,-188.353 392.104,-203.642 355,-228 332.075,-243.049 258.372,-254.201 213.001,-259.849"/><polygon fill="#000" stroke="#000" points="202.952 -261.067 212.337 -255.396 207.915 -260.465 212.879 -259.863 212.879 -259.863 212.879 -259.863 207.915 -260.465 213.421 -264.331 202.952 -261.067 202.952 -261.067"/><text x="431" y="-138.8" font-family="Bitstream Vera Sans" font-size="8" text-anchor="middle">register</text></g><g id="edge20" class="edge"><title>starting-&gt;idle</title><path fill="none" stroke="#000" d="M287.622,-330.159C278.379,-320.6 265.75,-308.64 253,-300 239.402,-290.785 223.071,-282.777 208.955,-276.669"/><polygon fill="#000" stroke="#000" points="199.597 -272.753 210.559 -272.462 204.209 -274.683 208.822 -276.614 208.822 -276.614 208.822 -276.614 204.209 -274.683 207.084 -280.765 199.597 -272.753 199.597 -272.753"/><text x="281" y="-302.8" font-family="Bitstream Vera Sans" font-size="8" text-anchor="middle">register</text></g></g></svg>