<svg xmlns="http://www.w3.org/2000/svg" xmlns:xlink="http://www.w3.org/1999/xlink" width="937pt" height="656" viewBox="0 0 937 492"><g id="graph1" class="graph" transform="scale(1 1) rotate(0) translate(4 488)"><title>G</title><polygon fill="#fff" stroke="#fff" points="-4 5 -4 -488 934 -488 934 5 -4 5"/><g id="graph2" class="cluster"><title>cluster_0</title><polygon fill="none" stroke="#000" points="113 -8 113 -78 327 -78 327 -8 113 -8"/><text x="220" y="-66.8" font-family="Bitstream Vera Sans" font-size="8" text-anchor="middle">APIs</text></g><g id="node1" class="node"><title>Ec2Metrics</title><polygon fill="none" stroke="#000" points="75 -124 13 -124 13 -88 75 -88 75 -124"/><text x="44" y="-103.8" font-family="Bitstream Vera Sans" font-size="8" text-anchor="middle">Ec2Metrics</text></g><g id="node8" class="node"><title>cloud_metrics</title><ellipse cx="44" cy="-34" fill="none" stroke="#000" rx="43.879" ry="18"/><text x="44" y="-31.8" font-family="Bitstream Vera Sans" font-size="8" text-anchor="middle">cloud_metrics</text></g><g id="edge3" class="edge"><title>Ec2Metrics-&gt;cloud_metrics</title><path fill="none" stroke="#000" d="M44,-87.8314C44,-80.131 44,-70.9743 44,-62.4166"/><polygon fill="#000" stroke="#000" points="44 -52.413 48.5 -62.413 44 -57.413 44 -62.413 44 -62.413 44 -62.413 44 -57.413 39.5 -62.413 44 -52.413 44 -52.413"/></g><g id="node24" class="node"><title>FogEc2</title><polygon fill="none" stroke="#000" points="319 -52 265 -52 265 -16 319 -16 319 -52"/><text x="292" y="-31.8" font-family="Bitstream Vera Sans" font-size="8" text-anchor="middle">FogEc2</text></g><g id="edge47" class="edge"><title>Ec2Metrics-&gt;FogEc2</title><path fill="none" stroke="#000" stroke-dasharray="5 2" d="M75.3878,-102.003C133.922,-94.5304 254.039,-79.0924 256,-78 263.518,-73.8127 270.091,-67.3739 275.49,-60.7029"/><polygon fill="#000" stroke="#000" points="281.685 -52.281 279.385 -63.003 278.722 -56.309 275.759 -60.337 275.759 -60.337 275.759 -60.337 278.722 -56.309 272.134 -57.67 281.685 -52.281 281.685 -52.281"/></g><g id="node2" class="node"><title>SiteObserver</title><polygon fill="none" stroke="#000" points="461 -412 389 -412 389 -376 461 -376 461 -412"/><text x="425" y="-391.8" font-family="Bitstream Vera Sans" font-size="8" text-anchor="middle">SiteObserver</text></g><g id="node10" class="node"><title>sites_observed</title><ellipse cx="748" cy="-322" fill="none" stroke="#000" rx="46.844" ry="18"/><text x="748" y="-319.8" font-family="Bitstream Vera Sans" font-size="8" text-anchor="middle">sites_observed</text></g><g id="edge7" class="edge"><title>SiteObserver-&gt;sites_observed</title><path fill="none" stroke="#000" d="M461.136,-388.01C512.734,-379.16 610.318,-361.317 692,-340 695.57,-339.068 699.247,-338.041 702.93,-336.964"/><polygon fill="#000" stroke="#000" points="712.626 -334.028 704.36 -341.233 707.84 -335.477 703.055 -336.927 703.055 -336.927 703.055 -336.927 707.84 -335.477 701.75 -332.62 712.626 -334.028 712.626 -334.028"/></g><g id="node25" class="node"><title>Sites</title><polygon fill="none" stroke="#000" points="175 -52 121 -52 121 -16 175 -16 175 -52"/><text x="148" y="-31.8" font-family="Bitstream Vera Sans" font-size="8" text-anchor="middle">Sites</text></g><g id="edge49" class="edge"><title>SiteObserver-&gt;Sites</title><path fill="none" stroke="#000" stroke-dasharray="5 2" d="M388.792,-392.482C316.84,-388.702 159.561,-376.389 122,-340 92.6379,-311.554 103,-290.882 103,-250 103,-250 103,-250 103,-178 103,-135.826 120.802,-89.738 134.012,-61.3433"/><polygon fill="#000" stroke="#000" points="138.457 -52.073 138.191 -63.036 136.295 -56.582 134.133 -61.09 134.133 -61.09 134.133 -61.09 136.295 -56.582 130.076 -59.145 138.457 -52.073 138.457 -52.073"/></g><g id="node3" class="node"><title>ControlCenter</title><polygon fill="none" stroke="#000" points="658 -268 582 -268 582 -232 658 -232 658 -268"/><text x="620" y="-247.8" font-family="Bitstream Vera Sans" font-size="8" text-anchor="middle">ControlCenter</text></g><g id="node15" class="node"><title>spawn_server</title><ellipse cx="620" cy="-178" fill="none" stroke="#000" rx="43.956" ry="18"/><text x="620" y="-175.8" font-family="Bitstream Vera Sans" font-size="8" text-anchor="middle">spawn_server</text></g><g id="edge19" class="edge"><title>ControlCenter-&gt;spawn_server</title><path fill="none" stroke="#000" d="M620,-231.831C620,-224.131 620,-214.974 620,-206.417"/><polygon fill="#000" stroke="#000" points="620 -196.413 624.5 -206.413 620 -201.413 620 -206.413 620 -206.413 620 -206.413 620 -201.413 615.5 -206.413 620 -196.413 620 -196.413"/></g><g id="node16" class="node"><title>new_icecast_server</title><ellipse cx="404" cy="-178" fill="none" stroke="#000" rx="57.814" ry="18"/><text x="404" y="-175.8" font-family="Bitstream Vera Sans" font-size="8" text-anchor="middle">new_icecast_server</text></g><g id="edge21" class="edge"><title>ControlCenter-&gt;new_icecast_server</title><path fill="none" stroke="#000" d="M581.881,-237.294C546.041,-225.347 492.209,-207.403 453.154,-194.385"/><polygon fill="#000" stroke="#000" points="443.564 -191.188 454.474 -190.081 448.307 -192.769 453.051 -194.35 453.051 -194.35 453.051 -194.35 448.307 -192.769 451.628 -198.619 443.564 -191.188 443.564 -191.188"/></g><g id="node17" class="node"><title>reap_server</title><ellipse cx="519" cy="-178" fill="none" stroke="#000" rx="38.763" ry="18"/><text x="519" y="-175.8" font-family="Bitstream Vera Sans" font-size="8" text-anchor="middle">reap_server</text></g><g id="edge23" class="edge"><title>ControlCenter-&gt;reap_server</title><path fill="none" stroke="#000" d="M594.513,-231.831C580.542,-221.872 563.154,-209.476 548.585,-199.091"/><polygon fill="#000" stroke="#000" points="540.381 -193.242 551.136 -195.382 544.452 -196.144 548.524 -199.047 548.524 -199.047 548.524 -199.047 544.452 -196.144 545.912 -202.711 540.381 -193.242 540.381 -193.242"/></g><g id="node4" class="node"><title>Ec2Reaper</title><polygon fill="none" stroke="#000" points="438 -124 376 -124 376 -88 438 -88 438 -124"/><text x="407" y="-103.8" font-family="Bitstream Vera Sans" font-size="8" text-anchor="middle">Ec2Reaper</text></g><g id="edge51" class="edge"><title>Ec2Reaper-&gt;FogEc2</title><path fill="none" stroke="#000" stroke-dasharray="5 2" d="M375.637,-100.515C358.808,-96.4103 338.419,-89.4658 323,-78 316.814,-73.3999 311.395,-67.1951 306.892,-60.8976"/><polygon fill="#000" stroke="#000" points="301.333 -52.395 310.571 -58.302 304.069 -56.58 306.805 -60.764 306.805 -60.764 306.805 -60.764 304.069 -56.58 303.039 -63.227 301.333 -52.395 301.333 -52.395"/></g><g id="node5" class="node"><title>Slacker</title><polygon fill="none" stroke="#000" points="247 -124 193 -124 193 -88 247 -88 247 -124"/><text x="220" y="-103.8" font-family="Bitstream Vera Sans" font-size="8" text-anchor="middle">Slacker</text></g><g id="node26" class="node"><title>Slack</title><polygon fill="none" stroke="#000" points="247 -52 193 -52 193 -16 247 -16 247 -52"/><text x="220" y="-31.8" font-family="Bitstream Vera Sans" font-size="8" text-anchor="middle">Slack</text></g><g id="edge53" class="edge"><title>Slacker-&gt;Slack</title><path fill="none" stroke="#000" stroke-dasharray="5 2" d="M220,-87.8314C220,-80.131 220,-70.9743 220,-62.4166"/><polygon fill="#000" stroke="#000" points="220 -52.413 224.5 -62.413 220 -57.413 220 -62.413 220 -62.413 220 -62.413 220 -57.413 215.5 -62.413 220 -52.413 220 -52.413"/></g><g id="node6" class="node"><title>Mediator</title><polygon fill="none" stroke="#000" points="328 -268 274 -268 274 -232 328 -232 328 -268"/><text x="301" y="-247.8" font-family="Bitstream Vera Sans" font-size="8" text-anchor="middle">Mediator</text></g><g id="node18" class="node"><title>notification</title><ellipse cx="220" cy="-178" fill="none" stroke="#000" rx="35.875" ry="18"/><text x="220" y="-175.8" font-family="Bitstream Vera Sans" font-size="8" text-anchor="middle">notification</text></g><g id="edge39" class="edge"><title>Mediator-&gt;notification</title><path fill="none" stroke="#000" d="M280.56,-231.831C269.822,-222.286 256.567,-210.504 245.197,-200.398"/><polygon fill="#000" stroke="#000" points="237.682 -193.717 248.146 -196.998 241.419 -197.039 245.156 -200.361 245.156 -200.361 245.156 -200.361 241.419 -197.039 242.166 -203.724 237.682 -193.717 237.682 -193.717"/></g><g id="node22" class="node"><title>techne</title><ellipse cx="301" cy="-178" fill="none" stroke="#000" rx="27" ry="18"/><text x="301" y="-175.8" font-family="Bitstream Vera Sans" font-size="8" text-anchor="middle">techne</text></g><g id="edge41" class="edge"><title>Mediator-&gt;techne</title><path fill="none" stroke="#000" d="M301,-231.831C301,-224.131 301,-214.974 301,-206.417"/><polygon fill="#000" stroke="#000" points="301 -196.413 305.5 -206.413 301 -201.413 301 -206.413 301 -206.413 301 -206.413 301 -201.413 296.5 -206.413 301 -196.413 301 -196.413"/></g><g id="node7" class="node"><title>Ec2Spawner</title><polygon fill="none" stroke="#000" points="654 -124 586 -124 586 -88 654 -88 654 -124"/><text x="620" y="-103.8" font-family="Bitstream Vera Sans" font-size="8" text-anchor="middle">Ec2Spawner</text></g><g id="node12" class="node"><title>server_ready</title><ellipse cx="656" cy="-34" fill="none" stroke="#000" rx="42.147" ry="18"/><text x="656" y="-31.8" font-family="Bitstream Vera Sans" font-size="8" text-anchor="middle">server_ready</text></g><g id="edge45" class="edge"><title>Ec2Spawner-&gt;server_ready</title><path fill="none" stroke="#000" d="M629.084,-87.8314C633.166,-79.6688 638.065,-69.87 642.559,-60.8827"/><polygon fill="#000" stroke="#000" points="647.043 -51.913 646.596 -62.87 644.807 -56.386 642.571 -60.858 642.571 -60.858 642.571 -60.858 644.807 -56.386 638.546 -58.845 647.043 -51.913 647.043 -51.913"/></g><g id="edge55" class="edge"><title>Ec2Spawner-&gt;FogEc2</title><path fill="none" stroke="#000" stroke-dasharray="5 2" d="M585.885,-102.214C551.008,-98.3999 495.261,-92.4561 447,-88 419.472,-85.4583 347.008,-91.7062 323,-78 316.082,-74.0505 310.334,-67.852 305.743,-61.3405"/><polygon fill="#000" stroke="#000" points="300.2 -52.449 309.309 -58.554 302.845 -56.692 305.491 -60.935 305.491 -60.935 305.491 -60.935 302.845 -56.692 301.672 -63.316 300.2 -52.449 300.2 -52.449"/></g><g id="node9" class="node"><title>observe_site</title><ellipse cx="425" cy="-466" fill="none" stroke="#000" rx="40.992" ry="18"/><text x="425" y="-463.8" font-family="Bitstream Vera Sans" font-size="8" text-anchor="middle">observe_site</text></g><g id="edge5" class="edge"><title>observe_site-&gt;SiteObserver</title><path fill="none" stroke="#000" d="M425,-447.831C425,-440.131 425,-430.974 425,-422.417"/><polygon fill="#000" stroke="#000" points="425 -412.413 429.5 -422.413 425 -417.413 425 -422.413 425 -422.413 425 -422.413 425 -417.413 420.5 -422.413 425 -412.413 425 -412.413"/></g><g id="edge11" class="edge"><title>sites_observed-&gt;ControlCenter</title><path fill="none" stroke="#000" d="M721.478,-307.082C704.079,-297.294 680.974,-284.298 661.206,-273.178"/><polygon fill="#000" stroke="#000" points="652.39 -268.22 663.312 -269.2 656.748 -270.671 661.106 -273.122 661.106 -273.122 661.106 -273.122 656.748 -270.671 658.9 -277.044 652.39 -268.22 652.39 -268.22"/></g><g id="node11" class="node"><title>streamer_transition</title><ellipse cx="871" cy="-322" fill="none" stroke="#000" rx="57.814" ry="18"/><text x="871" y="-319.8" font-family="Bitstream Vera Sans" font-size="8" text-anchor="middle">streamer_transition</text></g><g id="edge9" class="edge"><title>streamer_transition-&gt;ControlCenter</title><path fill="none" stroke="#000" d="M828.137,-309.705C783.655,-296.945 714.24,-277.033 667.96,-263.757"/><polygon fill="#000" stroke="#000" points="658.165 -260.948 669.018 -259.379 662.971 -262.326 667.777 -263.705 667.777 -263.705 667.777 -263.705 662.971 -262.326 666.536 -268.031 658.165 -260.948 658.165 -260.948"/></g><g id="edge13" class="edge"><title>server_ready-&gt;ControlCenter</title><path fill="none" stroke="#000" d="M663.219,-51.8014C674.518,-82.488 693.116,-146.787 673,-196 668.541,-206.909 660.697,-216.805 652.39,-225.057"/><polygon fill="#000" stroke="#000" points="645.043 -231.87 649.316 -221.77 648.709 -228.47 652.375 -225.07 652.375 -225.07 652.375 -225.07 648.709 -228.47 655.435 -228.37 645.043 -231.87 645.043 -231.87"/></g><g id="node13" class="node"><title>talk_transition</title><ellipse cx="495" cy="-322" fill="none" stroke="#000" rx="43.956" ry="18"/><text x="495" y="-319.8" font-family="Bitstream Vera Sans" font-size="8" text-anchor="middle">talk_transition</text></g><g id="edge15" class="edge"><title>talk_transition-&gt;ControlCenter</title><path fill="none" stroke="#000" d="M520.597,-307.256C537.693,-297.409 560.527,-284.256 579.999,-273.04"/><polygon fill="#000" stroke="#000" points="588.676 -268.042 582.257 -276.933 584.344 -270.538 580.011 -273.034 580.011 -273.034 580.011 -273.034 584.344 -270.538 577.765 -269.134 588.676 -268.042 588.676 -268.042"/></g><g id="edge31" class="edge"><title>talk_transition-&gt;Mediator</title><path fill="none" stroke="#000" d="M462.091,-309.786C427.605,-296.987 373.556,-276.928 337.71,-263.624"/><polygon fill="#000" stroke="#000" points="328.114 -260.063 339.055 -259.323 332.801 -261.803 337.489 -263.542 337.489 -263.542 337.489 -263.542 332.801 -261.803 335.923 -267.761 328.114 -260.063 328.114 -260.063"/></g><g id="node14" class="node"><title>transaction_transition</title><ellipse cx="620" cy="-322" fill="none" stroke="#000" rx="63.008" ry="18"/><text x="620" y="-319.8" font-family="Bitstream Vera Sans" font-size="8" text-anchor="middle">transaction_transition</text></g><g id="edge17" class="edge"><title>transaction_transition-&gt;ControlCenter</title><path fill="none" stroke="#000" d="M620,-303.831C620,-296.131 620,-286.974 620,-278.417"/><polygon fill="#000" stroke="#000" points="620 -268.413 624.5 -278.413 620 -273.413 620 -278.413 620 -278.413 620 -278.413 620 -273.413 615.5 -278.413 620 -268.413 620 -268.413"/></g><g id="edge37" class="edge"><title>transaction_transition-&gt;Mediator</title><path fill="none" stroke="#000" d="M572.799,-309.986C564.543,-307.946 556.029,-305.881 548,-304 473.743,-286.605 386.503,-267.947 338.11,-257.754"/><polygon fill="#000" stroke="#000" points="328.106 -255.65 338.818 -253.304 332.999 -256.679 337.892 -257.708 337.892 -257.708 337.892 -257.708 332.999 -256.679 336.966 -262.112 328.106 -255.65 328.106 -255.65"/></g><g id="edge43" class="edge"><title>spawn_server-&gt;Ec2Spawner</title><path fill="none" stroke="#000" d="M620,-159.831C620,-152.131 620,-142.974 620,-134.417"/><polygon fill="#000" stroke="#000" points="620 -124.413 624.5 -134.413 620 -129.413 620 -134.413 620 -134.413 620 -134.413 620 -129.413 615.5 -134.413 620 -124.413 620 -124.413"/></g><g id="edge25" class="edge"><title>reap_server-&gt;Ec2Reaper</title><path fill="none" stroke="#000" d="M496.065,-163.256C481.023,-153.586 461.023,-140.729 443.787,-129.649"/><polygon fill="#000" stroke="#000" points="435.066 -124.042 445.911 -125.665 439.272 -126.746 443.478 -129.45 443.478 -129.45 443.478 -129.45 439.272 -126.746 441.044 -133.235 435.066 -124.042 435.066 -124.042"/></g><g id="edge27" class="edge"><title>notification-&gt;Slacker</title><path fill="none" stroke="#000" d="M220,-159.831C220,-152.131 220,-142.974 220,-134.417"/><polygon fill="#000" stroke="#000" points="220 -124.413 224.5 -134.413 220 -129.413 220 -134.413 220 -134.413 220 -134.413 220 -129.413 215.5 -134.413 220 -124.413 220 -124.413"/></g><g id="node19" class="node"><title>dj_callback</title><ellipse cx="397" cy="-322" fill="none" stroke="#000" rx="35.796" ry="18"/><text x="397" y="-319.8" font-family="Bitstream Vera Sans" font-size="8" text-anchor="middle">dj_callback</text></g><g id="edge29" class="edge"><title>dj_callback-&gt;Mediator</title><path fill="none" stroke="#000" d="M376.641,-306.731C364.034,-297.276 347.569,-284.927 333.221,-274.166"/><polygon fill="#000" stroke="#000" points="325.062 -268.047 335.762 -270.447 329.062 -271.047 333.062 -274.047 333.062 -274.047 333.062 -274.047 329.062 -271.047 330.362 -277.647 325.062 -268.047 325.062 -268.047"/></g><g id="node20" class="node"><title>lifecycle_user</title><ellipse cx="173" cy="-322" fill="none" stroke="#000" rx="42.221" ry="18"/><text x="173" y="-319.8" font-family="Bitstream Vera Sans" font-size="8" text-anchor="middle">lifecycle_user</text></g><g id="edge33" class="edge"><title>lifecycle_user-&gt;Mediator</title><path fill="none" stroke="#000" d="M198.595,-307.603C217.534,-296.95 243.592,-282.292 264.682,-270.429"/><polygon fill="#000" stroke="#000" points="273.679 -265.368 267.17 -274.193 269.322 -267.819 264.964 -270.27 264.964 -270.27 264.964 -270.27 269.322 -267.819 262.757 -266.348 273.679 -265.368 273.679 -265.368"/></g><g id="node21" class="node"><title>lifecycle_message</title><ellipse cx="288" cy="-322" fill="none" stroke="#000" rx="54.848" ry="18"/><text x="288" y="-319.8" font-family="Bitstream Vera Sans" font-size="8" text-anchor="middle">lifecycle_message</text></g><g id="edge35" class="edge"><title>lifecycle_message-&gt;Mediator</title><path fill="none" stroke="#000" d="M291.28,-303.831C292.671,-296.131 294.324,-286.974 295.869,-278.417"/><polygon fill="#000" stroke="#000" points="297.675 -268.413 300.327 -279.054 296.787 -273.334 295.898 -278.254 295.898 -278.254 295.898 -278.254 296.787 -273.334 291.47 -277.455 297.675 -268.413 297.675 -268.413"/></g></g></svg>