<svg xmlns="http://www.w3.org/2000/svg" xmlns:xlink="http://www.w3.org/1999/xlink" width="3048" height="616" viewBox="0 0 2286 462"><g id="graph1" class="graph" transform="scale(1 1) rotate(0) translate(4 458)"><title>models_diagram</title><polygon fill="#fff" stroke="#fff" points="-4 5 -4 -458 2283 -458 2283 5 -4 5"/><g id="node1" class="node"><title>User</title><ellipse cx="1055" cy="-436" fill="none" stroke="#000" rx="32.856" ry="18"/><text x="1055" y="-431.9" font-family="Times Roman,serif" font-size="14" text-anchor="middle">User</text></g><g id="node2" class="node"><title>Purchase</title><ellipse cx="137" cy="-362" fill="none" stroke="#000" rx="55.09" ry="18"/><text x="137" y="-357.9" font-family="Times Roman,serif" font-size="14" text-anchor="middle">Purchase</text></g><g id="edge16" class="edge"><title>User-&gt;Purchase</title><path fill="none" stroke="#125af4" d="M1013.53,-434.981C857.457,-431.036 310.457,-416.184 234,-400 214.592,-395.892 194.007,-388.328 176.818,-381.024"/><ellipse cx="1017.95" cy="-435.092" fill="none" stroke="#125af4" rx="4" ry="4"/><polygon fill="#125af4" stroke="#125af4" points="176.81 -381.02 169.448 -372.893 172.228 -379.018 167.646 -377.016 167.646 -377.016 167.646 -377.016 172.228 -379.018 165.844 -381.14 176.81 -381.02 176.81 -381.02"/></g><g id="node3" class="node"><title>Message</title><ellipse cx="159" cy="-18" fill="none" stroke="#000" rx="52.116" ry="18"/><text x="159" y="-13.9" font-family="Times Roman,serif" font-size="14" text-anchor="middle">Message</text></g><g id="edge2" class="edge"><title>User-&gt;Message</title><path fill="none" stroke="#b2944a" d="M1013.81,-435.597C864.964,-433.931 360.147,-426.371 293,-400 268.635,-390.431 248,-388.177 248,-362 248,-362 248,-362 248,-108 248,-77.4689 221.785,-53.5683 197.81,-38.094"/><ellipse cx="1017.87" cy="-435.642" fill="none" stroke="#b2944a" rx="4" ry="4"/><polygon fill="#b2944a" stroke="#b2944a" points="197.659 -38.001 191.482 -28.94 193.395 -35.389 189.131 -32.778 189.131 -32.778 189.131 -32.778 193.395 -35.389 186.781 -36.615 197.659 -38.001 197.659 -38.001"/></g><g id="node4" class="node"><title>Series</title><ellipse cx="940" cy="-182" fill="none" stroke="#000" rx="40.998" ry="18"/><text x="940" y="-177.9" font-family="Times Roman,serif" font-size="14" text-anchor="middle">Series</text></g><g id="edge6" class="edge"><title>User-&gt;Series</title><path fill="none" stroke="#7df8b8" d="M1013.98,-431.694C992.473,-427.252 967.948,-418.244 954,-400 911.094,-343.881 918.316,-254.533 928.961,-209.647"/><ellipse cx="1018.12" cy="-432.457" fill="none" stroke="#7df8b8" rx="4" ry="4"/><polygon fill="#7df8b8" stroke="#7df8b8" points="929.021 -209.42 935.915 -200.893 930.292 -204.584 931.563 -199.749 931.563 -199.749 931.563 -199.749 930.292 -204.584 927.211 -198.604 929.021 -209.42 929.021 -209.42"/></g><g id="edge12" class="edge"><title>User-&gt;Series</title><path fill="none" stroke="#86af87" d="M1033.76,-411.97C1016.18,-390.783 991.893,-358.332 978,-326 958.661,-280.993 970.924,-264.657 956,-218 955.051,-215.034 953.934,-211.984 952.738,-208.974"/><polygon fill="#86af87" stroke="#86af87" points="1033.92 -412.15 1036.94 -422.691 1037.15 -415.968 1040.38 -419.785 1040.38 -419.785 1040.38 -419.785 1037.15 -415.968 1043.81 -416.879 1033.92 -412.15 1033.92 -412.15"/><polygon fill="#86af87" stroke="#86af87" points="952.683 -208.845 952.899 -197.881 950.721 -204.246 948.759 -199.647 948.759 -199.647 948.759 -199.647 950.721 -204.246 944.62 -201.412 952.683 -208.845 952.683 -208.845"/><text x="1045" y="-312.9" font-family="Times Roman,serif" font-size="14" text-anchor="middle">participating_series</text></g><g id="node11" class="node"><title>Participation</title><ellipse cx="1289" cy="-108" fill="none" stroke="#000" rx="71.072" ry="18"/><text x="1289" y="-103.9" font-family="Times Roman,serif" font-size="14" text-anchor="middle">Participation</text></g><g id="edge10" class="edge"><title>User-&gt;Participation</title><path fill="none" stroke="#80a36f" d="M1088.01,-421.416C1091.03,-420.214 1094.06,-419.057 1097,-418 1180.25,-388.078 1288,-450.462 1288,-362 1288,-362 1288,-362 1288,-182 1288,-166.995 1288.21,-150.281 1288.43,-136.539"/><ellipse cx="1084.27" cy="-422.948" fill="none" stroke="#80a36f" rx="4" ry="4"/><polygon fill="#80a36f" stroke="#80a36f" points="1288.44 -136.244 1293.12 -126.325 1288.53 -131.245 1288.62 -126.246 1288.62 -126.246 1288.62 -126.246 1288.53 -131.245 1284.12 -126.166 1288.44 -136.244 1288.44 -136.244"/></g><g id="node12" class="node"><title>Venue</title><ellipse cx="1219" cy="-182" fill="none" stroke="#000" rx="41.191" ry="18"/><text x="1219" y="-177.9" font-family="Times Roman,serif" font-size="14" text-anchor="middle">Venue</text></g><g id="edge4" class="edge"><title>User-&gt;Venue</title><path fill="none" stroke="#3f3b97" d="M1084.78,-418.776C1125.11,-394.793 1193.72,-351.427 1208,-326 1228.21,-290.021 1226.98,-240.78 1223.53,-210.204"/><ellipse cx="1081.29" cy="-420.843" fill="none" stroke="#3f3b97" rx="4" ry="4"/><polygon fill="#3f3b97" stroke="#3f3b97" points="1223.52 -210.138 1226.7 -199.646 1222.88 -205.179 1222.24 -200.22 1222.24 -200.22 1222.24 -200.22 1222.88 -205.179 1217.78 -200.794 1223.52 -210.138 1223.52 -210.138"/></g><g id="node13" class="node"><title>Reminder</title><ellipse cx="286" cy="-18" fill="none" stroke="#000" rx="56.98" ry="18"/><text x="286" y="-13.9" font-family="Times Roman,serif" font-size="14" text-anchor="middle">Reminder</text></g><g id="edge14" class="edge"><title>User-&gt;Reminder</title><path fill="none" stroke="#acef93" d="M1013.68,-434.015C921.076,-429.419 689.931,-417.114 497,-400 402.086,-391.581 286,-457.286 286,-362 286,-362 286,-362 286,-108 286,-87.4263 286,-64.207 286,-46.5065"/><ellipse cx="1017.94" cy="-434.226" fill="none" stroke="#acef93" rx="4" ry="4"/><polygon fill="#acef93" stroke="#acef93" points="286 -46.272 290.5 -36.272 286 -41.272 286 -36.272 286 -36.272 286 -36.272 286 -41.272 281.5 -36.272 286 -46.272 286 -46.272"/></g><g id="node18" class="node"><title>WelcomeTransaction</title><ellipse cx="2067" cy="-362" fill="none" stroke="#000" rx="109.791" ry="18"/><text x="2067" y="-357.9" font-family="Times Roman,serif" font-size="14" text-anchor="middle">WelcomeTransaction</text></g><g id="edge18" class="edge"><title>User-&gt;WelcomeTransaction</title><path fill="none" stroke="#7e2ca9" d="M1086.98,-420.831C1090.31,-419.697 1093.69,-418.717 1097,-418 1280.79,-378.234 1757.34,-429.832 1943,-400 1967.46,-396.07 1993.8,-388.498 2015.89,-381.142"/><ellipse cx="1083.1" cy="-422.296" fill="none" stroke="#7e2ca9" rx="4" ry="4"/><ellipse cx="2019.72" cy="-379.84" fill="#7e2ca9" stroke="#7e2ca9" rx="4" ry="4"/></g><g id="node19" class="node"><title>Membership</title><ellipse cx="1750" cy="-272" fill="none" stroke="#000" rx="68.988" ry="18"/><text x="1750" y="-267.9" font-family="Times Roman,serif" font-size="14" text-anchor="middle">Membership</text></g><g id="edge20" class="edge"><title>User-&gt;Membership</title><path fill="none" stroke="#553283" d="M1087,-420.95C1090.33,-419.792 1093.7,-418.774 1097,-418 1217.36,-389.783 1541.23,-434.876 1652,-380 1688.33,-362.004 1717.55,-324.269 1734.34,-298.527"/><ellipse cx="1083.12" cy="-422.431" fill="none" stroke="#553283" rx="4" ry="4"/><polygon fill="#553283" stroke="#553283" points="1734.41 -298.424 1743.56 -292.381 1737.08 -294.199 1739.76 -289.974 1739.76 -289.974 1739.76 -289.974 1737.08 -294.199 1735.96 -287.568 1734.41 -298.424 1734.41 -298.424"/></g><g id="node21" class="node"><title>Organization</title><ellipse cx="1569" cy="-362" fill="none" stroke="#000" rx="73.853" ry="18"/><text x="1569" y="-357.9" font-family="Times Roman,serif" font-size="14" text-anchor="middle">Organization</text></g><g id="edge22" class="edge"><title>User-&gt;Organization</title><path fill="none" stroke="#c75c64" d="M1088.95,-420.301C1091.64,-419.413 1094.34,-418.628 1097,-418 1228.72,-386.878 1266.99,-418.993 1401,-400 1437.33,-394.85 1477.44,-385.906 1509.35,-377.988"/><polygon fill="#c75c64" stroke="#c75c64" points="1088.76 -420.373 1077.82 -419.658 1084.07 -422.123 1079.39 -423.874 1079.39 -423.874 1079.39 -423.874 1084.07 -422.123 1080.97 -428.089 1088.76 -420.373 1088.76 -420.373"/><polygon fill="#c75c64" stroke="#c75c64" points="1509.71 -377.897 1520.5 -379.823 1514.56 -376.678 1519.41 -375.459 1519.41 -375.459 1519.41 -375.459 1514.56 -376.678 1518.31 -371.095 1509.71 -377.897 1509.71 -377.897"/></g><g id="node22" class="node"><title>Talk</title><ellipse cx="449" cy="-108" fill="none" stroke="#000" rx="30.074" ry="18"/><text x="449" y="-103.9" font-family="Times Roman,serif" font-size="14" text-anchor="middle">Talk</text></g><g id="edge8" class="edge"><title>User-&gt;Talk</title><path fill="none" stroke="#6d4ade" d="M1011.69,-434.163C890.587,-428.23 558,-407.275 558,-362 558,-362 558,-362 558,-182 558,-146.216 518.569,-127.075 487.033,-117.293"/><polygon fill="#6d4ade" stroke="#6d4ade" points="1011.74 -434.165 1021.51 -439.139 1016.73 -434.405 1021.73 -434.644 1021.73 -434.644 1021.73 -434.644 1016.73 -434.405 1021.94 -430.149 1011.74 -434.165 1011.74 -434.165"/><polygon fill="#6d4ade" stroke="#6d4ade" points="486.74 -117.209 478.379 -110.113 481.936 -115.823 477.132 -114.437 477.132 -114.437 477.132 -114.437 481.936 -115.823 475.885 -118.761 486.74 -117.209 486.74 -117.209"/></g><g id="node37" class="node"><title>ActsAsTaggableOn::Tagging</title><ellipse cx="1563" cy="-18" fill="none" stroke="#000" rx="141.756" ry="18"/><text x="1563" y="-13.9" font-family="Times Roman,serif" font-size="14" text-anchor="middle">ActsAsTaggableOn::Tagging</text></g><g id="edge24" class="edge"><title>User-&gt;ActsAsTaggableOn::Tagging</title><path fill="none" stroke="#3712fc" d="M1086.99,-420.881C1090.32,-419.737 1093.69,-418.741 1097,-418 1206.36,-393.51 1489.43,-410.573 1601,-400 1656.07,-394.782 1847,-417.315 1847,-362 1847,-362 1847,-362 1847,-108 1847,-70.0555 1753.71,-46.0419 1674.06,-32.4549"/><ellipse cx="1083.11" cy="-422.353" fill="none" stroke="#3712fc" rx="4" ry="4"/><polygon fill="#3712fc" stroke="#3712fc" points="1673.79 -32.41 1664.67 -26.329 1668.86 -31.589 1663.93 -30.768 1663.93 -30.768 1663.93 -30.768 1668.86 -31.589 1663.19 -35.207 1673.79 -32.41 1673.79 -32.41"/><text x="1876.5" y="-222.9" font-family="Times Roman,serif" font-size="14" text-anchor="middle">taggings</text></g><g id="edge28" class="edge"><title>User-&gt;ActsAsTaggableOn::Tagging</title><path fill="none" stroke="#8bef9e" d="M1086.98,-420.861C1090.31,-419.721 1093.69,-418.731 1097,-418 1227.69,-389.133 1565.57,-410.416 1699,-400 1802.29,-391.937 1929,-465.608 1929,-362 1929,-362 1929,-362 1929,-108 1929,-59.3974 1805.76,-36.8958 1702.3,-26.5691"/><ellipse cx="1083.1" cy="-422.33" fill="none" stroke="#8bef9e" rx="4" ry="4"/><polygon fill="#8bef9e" stroke="#8bef9e" points="1701.99 -26.539 1692.47 -21.098 1697.01 -26.058 1692.04 -25.577 1692.04 -25.577 1692.04 -25.577 1697.01 -26.058 1691.61 -30.057 1701.99 -26.539 1701.99 -26.539"/><text x="1973.5" y="-222.9" font-family="Times Roman,serif" font-size="14" text-anchor="middle">tag_taggings</text></g><g id="node39" class="node"><title>ActsAsTaggableOn::Tag</title><ellipse cx="1208" cy="-18" fill="none" stroke="#000" rx="121.104" ry="18"/><text x="1208" y="-13.9" font-family="Times Roman,serif" font-size="14" text-anchor="middle">ActsAsTaggableOn::Tag</text></g><g id="edge26" class="edge"><title>User-&gt;ActsAsTaggableOn::Tag</title><path fill="none" stroke="#352592" d="M1089.46,-420.238C1091.98,-419.392 1094.51,-418.632 1097,-418 1138.96,-407.343 1254.79,-423.736 1291,-400 1299.48,-394.438 1298.73,-389.604 1302,-380 1325.47,-311.031 1306.12,-287.796 1327,-218 1339.88,-174.937 1359.45,-169.922 1369,-126 1372.4,-110.365 1379.84,-101.764 1369,-90 1335.6,-53.7716 1181.4,-108.228 1148,-72 1137.84,-60.9748 1146.65,-49.7323 1160.35,-40.3802"/><polygon fill="#352592" stroke="#352592" points="1089.24 -420.321 1078.29 -419.62 1084.55 -422.077 1079.87 -423.834 1079.87 -423.834 1079.87 -423.834 1084.55 -422.077 1081.45 -428.047 1089.24 -420.321 1089.24 -420.321"/><polygon fill="#352592" stroke="#352592" points="1160.38 -40.367 1171.25 -38.936 1164.63 -37.738 1168.88 -35.108 1168.88 -35.108 1168.88 -35.108 1164.63 -37.738 1166.51 -31.281 1160.38 -40.367 1160.38 -40.367"/><text x="1361.5" y="-222.9" font-family="Times Roman,serif" font-size="14" text-anchor="middle">base_tags</text></g><g id="edge30" class="edge"><title>User-&gt;ActsAsTaggableOn::Tag</title><path fill="none" stroke="#5ee1bc" d="M1089.45,-420.218C1091.98,-419.377 1094.51,-418.623 1097,-418 1142.44,-406.63 1266.42,-423.386 1307,-400 1342.72,-379.417 1339.21,-467.988 1396,-236 1407.1,-190.661 1451.21,-166.163 1386,-90 1363.42,-63.6327 1342.49,-84.2194 1310,-72 1287.76,-63.6351 1264.23,-51.4317 1245.39,-40.7413"/><polygon fill="#5ee1bc" stroke="#5ee1bc" points="1089.23 -420.3 1078.29 -419.589 1084.55 -422.052 1079.87 -423.803 1079.87 -423.803 1079.87 -423.803 1084.55 -422.052 1081.44 -428.018 1089.23 -420.3 1089.23 -420.3"/><polygon fill="#5ee1bc" stroke="#5ee1bc" points="1245.2 -40.634 1238.79 -31.74 1240.87 -38.136 1236.54 -35.638 1236.54 -35.638 1236.54 -35.638 1240.87 -38.136 1234.29 -39.536 1245.2 -40.634 1245.2 -40.634"/><text x="1418" y="-222.9" font-family="Times Roman,serif" font-size="14" text-anchor="middle">tags</text></g><g id="node43" class="node"><title>PgSearch::Document</title><ellipse cx="473" cy="-18" fill="none" stroke="#000" rx="111.876" ry="18"/><text x="473" y="-13.9" font-family="Times Roman,serif" font-size="14" text-anchor="middle">PgSearch::Document</text></g><g id="edge32" class="edge"><title>User-&gt;PgSearch::Document</title><path fill="none" stroke="#5bd791" d="M1013.31,-433.983C858.293,-426.212 324,-396.897 324,-362 324,-362 324,-362 324,-108 324,-70.1933 359.582,-47.8447 395.97,-34.8745"/><ellipse cx="1017.7" cy="-434.201" fill="none" stroke="#5bd791" rx="4" ry="4"/><ellipse cx="399.946" cy="-33.529" fill="#5bd791" stroke="#5bd791" rx="4" ry="4"/><text x="396.5" y="-222.9" font-family="Times Roman,serif" font-size="14" text-anchor="middle">pg_search_document</text></g><g id="node23" class="node"><title>PurchaseTransaction</title><ellipse cx="110" cy="-272" fill="none" stroke="#000" rx="109.791" ry="18"/><text x="110" y="-267.9" font-family="Times Roman,serif" font-size="14" text-anchor="middle">PurchaseTransaction</text></g><g id="edge34" class="edge"><title>Purchase-&gt;PurchaseTransaction</title><path fill="none" stroke="#199bd8" d="M129.207,-336.024C125.629,-324.097 121.395,-309.984 117.814,-298.048"/><ellipse cx="130.387" cy="-339.956" fill="none" stroke="#199bd8" rx="4" ry="4"/><ellipse cx="116.605" cy="-294.017" fill="#199bd8" stroke="#199bd8" rx="4" ry="4"/></g><g id="edge48" class="edge"><title>Series-&gt;User</title><path fill="none" stroke="#560232" d="M940.047,-210.269C936.251,-255.354 929.292,-344.139 972,-400 982.255,-413.413 998.226,-421.833 1013.49,-427.118"/><polygon fill="#560232" stroke="#560232" points="940.068 -210.017 945.377 -200.422 940.48 -205.034 940.892 -200.051 940.892 -200.051 940.892 -200.051 940.48 -205.034 936.408 -199.68 940.068 -210.017 940.068 -210.017"/><polygon fill="#560232" stroke="#560232" points="1013.79 -427.212 1022.02 -434.459 1018.57 -428.685 1023.35 -430.158 1023.35 -430.158 1023.35 -430.158 1018.57 -428.685 1024.68 -425.858 1013.79 -427.212 1013.79 -427.212"/></g><g id="edge52" class="edge"><title>Series-&gt;User</title><path fill="none" stroke="#d4bb21" d="M978.406,-197.394C1020.02,-216.416 1084.18,-253.143 1112,-308 1130.46,-344.402 1100.24,-388.07 1077.22,-413.844"/><ellipse cx="974.564" cy="-195.679" fill="none" stroke="#d4bb21" rx="4" ry="4"/><ellipse cx="1074.26" cy="-417.053" fill="#d4bb21" stroke="#d4bb21" rx="4" ry="4"/><text x="1161" y="-312.9" font-family="Times Roman,serif" font-size="14" text-anchor="middle">default_user</text></g><g id="edge46" class="edge"><title>Series-&gt;Participation</title><path fill="none" stroke="#56deda" d="M986.199,-173.481C1023.68,-166.456 1077.84,-156.048 1125,-146 1158.9,-138.777 1196.59,-130.091 1227.28,-122.848"/><ellipse cx="981.923" cy="-174.28" fill="none" stroke="#56deda" rx="4" ry="4"/><polygon fill="#56deda" stroke="#56deda" points="1227.67 -122.755 1238.44 -124.83 1232.53 -121.603 1237.4 -120.451 1237.4 -120.451 1237.4 -120.451 1232.53 -121.603 1236.36 -116.072 1227.67 -122.755 1227.67 -122.755"/></g><g id="node15" class="node"><title>SocialShare</title><ellipse cx="846" cy="-18" fill="none" stroke="#000" rx="66.904" ry="18"/><text x="846" y="-13.9" font-family="Times Roman,serif" font-size="14" text-anchor="middle">SocialShare</text></g><g id="edge50" class="edge"><title>Series-&gt;SocialShare</title><path fill="none" stroke="#fc6d44" d="M892.328,-175.533C871.318,-170.533 847.672,-161.677 831,-146 812.684,-128.777 810.307,-111.702 823,-90 831.238,-75.9143 846.762,-86.0857 855,-72 859.602,-64.1316 859.492,-54.5799 857.556,-45.7103"/><ellipse cx="896.324" cy="-176.41" fill="none" stroke="#fc6d44" rx="4" ry="4"/><polygon fill="#fc6d44" stroke="#fc6d44" points="857.556 -45.71 859.066 -34.848 856.152 -40.911 854.747 -36.112 854.747 -36.112 854.747 -36.112 856.152 -40.911 850.428 -37.376 857.556 -45.71 857.556 -45.71"/></g><g id="edge44" class="edge"><title>Series-&gt;Talk</title><path fill="none" stroke="#78bc05" d="M891.238,-178.354C827.455,-173.185 712.359,-162.48 615,-146 570.487,-138.465 520.013,-126.399 486.528,-117.888"/><ellipse cx="895.526" cy="-178.698" fill="none" stroke="#78bc05" rx="4" ry="4"/><polygon fill="#78bc05" stroke="#78bc05" points="486.394 -117.853 477.825 -111.01 481.551 -116.611 476.707 -115.369 476.707 -115.369 476.707 -115.369 481.551 -116.611 475.59 -119.728 486.394 -117.853 486.394 -117.853"/></g><g id="edge36" class="edge"><title>Series-&gt;ActsAsTaggableOn::Tagging</title><path fill="none" stroke="#4cbe58" d="M961.592,-159.545C987.516,-132.641 1027.81,-91.0237 1030,-90 1075.83,-68.549 1206.84,-78.6722 1257,-72 1300.03,-66.2762 1310.27,-61.6676 1353,-54 1390.36,-47.2963 1431.5,-40.1833 1467.4,-34.0659"/><ellipse cx="958.754" cy="-162.492" fill="none" stroke="#4cbe58" rx="4" ry="4"/><polygon fill="#4cbe58" stroke="#4cbe58" points="1467.52 -34.046 1478.13 -36.804 1472.45 -33.207 1477.38 -32.368 1477.38 -32.368 1477.38 -32.368 1472.45 -33.207 1476.62 -27.932 1467.52 -34.046 1467.52 -34.046"/><text x="1059.5" y="-103.9" font-family="Times Roman,serif" font-size="14" text-anchor="middle">taggings</text></g><g id="edge40" class="edge"><title>Series-&gt;ActsAsTaggableOn::Tagging</title><path fill="none" stroke="#27a265" d="M984.831,-171.484C1015.97,-162.727 1057.39,-148.08 1089,-126 1106.31,-113.909 1101.02,-99.2504 1120,-90 1196.39,-52.7687 1423.26,-103.983 1502,-72 1517.12,-65.8587 1531,-54.2848 1541.69,-43.4223"/><ellipse cx="980.601" cy="-172.638" fill="none" stroke="#27a265" rx="4" ry="4"/><polygon fill="#27a265" stroke="#27a265" points="1541.72 -43.39 1551.84 -39.167 1545.14 -39.741 1548.55 -36.091 1548.55 -36.091 1548.55 -36.091 1545.14 -39.741 1545.27 -33.015 1541.72 -43.39 1541.72 -43.39"/><text x="1164.5" y="-103.9" font-family="Times Roman,serif" font-size="14" text-anchor="middle">tag_taggings</text></g><g id="edge38" class="edge"><title>Series-&gt;ActsAsTaggableOn::Tag</title><path fill="none" stroke="#a12488" d="M900.393,-164.878C884.512,-155.8 867.893,-142.96 859,-126 851.57,-111.83 850.41,-103.499 859,-90 883.331,-51.7657 994.118,-33.7125 1084.44,-25.2638"/><polygon fill="#a12488" stroke="#a12488" points="900.773 -165.08 907.474 -173.76 905.183 -167.436 909.594 -169.791 909.594 -169.791 909.594 -169.791 905.183 -167.436 911.714 -165.821 900.773 -165.08 900.773 -165.08"/><polygon fill="#a12488" stroke="#a12488" points="1084.54 -25.254 1094.91 -28.835 1089.52 -24.804 1094.5 -24.354 1094.5 -24.354 1094.5 -24.354 1089.52 -24.804 1094.1 -19.872 1084.54 -25.254 1084.54 -25.254"/><text x="893.5" y="-103.9" font-family="Times Roman,serif" font-size="14" text-anchor="middle">base_tags</text></g><g id="edge42" class="edge"><title>Series-&gt;ActsAsTaggableOn::Tag</title><path fill="none" stroke="#1cd7dd" d="M940.322,-153.706C942.059,-133.452 947.644,-106.884 964,-90 986.16,-67.1246 1060.79,-47.1723 1121.74,-34.1097"/><polygon fill="#1cd7dd" stroke="#1cd7dd" points="940.308 -153.939 935.226 -163.656 940.013 -158.93 939.718 -163.921 939.718 -163.921 939.718 -163.921 940.013 -158.93 944.21 -164.187 940.308 -153.939 940.308 -153.939"/><polygon fill="#1cd7dd" stroke="#1cd7dd" points="1122 -34.056 1132.71 -36.396 1126.89 -33.024 1131.78 -31.993 1131.78 -31.993 1131.78 -31.993 1126.89 -33.024 1130.85 -27.59 1122 -34.056 1122 -34.056"/><text x="979" y="-103.9" font-family="Times Roman,serif" font-size="14" text-anchor="middle">tags</text></g><g id="edge54" class="edge"><title>Series-&gt;PgSearch::Document</title><path fill="none" stroke="#84d510" d="M891.538,-177.392C835.744,-170.888 742.133,-156.255 667,-126 611.412,-103.615 605.787,-82.3657 553,-54 542.753,-48.494 531.5,-43.069 520.753,-38.1669"/><ellipse cx="895.849" cy="-177.88" fill="none" stroke="#84d510" rx="4" ry="4"/><ellipse cx="517.06" cy="-36.504" fill="#84d510" stroke="#84d510" rx="4" ry="4"/><text x="739.5" y="-103.9" font-family="Times Roman,serif" font-size="14" text-anchor="middle">pg_search_document</text></g><g id="node5" class="node"><title>Metric</title><ellipse cx="1147" cy="-436" fill="none" stroke="#000" rx="40.998" ry="18"/><text x="1147" y="-431.9" font-family="Times Roman,serif" font-size="14" text-anchor="middle">Metric</text></g><g id="node6" class="node"><title>Device</title><ellipse cx="1459" cy="-272" fill="none" stroke="#000" rx="43.778" ry="18"/><text x="1459" y="-267.9" font-family="Times Roman,serif" font-size="14" text-anchor="middle">Device</text></g><g id="edge56" class="edge"><title>Device-&gt;Venue</title><path fill="none" stroke="#f74251" d="M1460.23,-245.87C1459.3,-235.874 1456.37,-225.167 1449,-218 1436.18,-205.528 1331.08,-193.088 1267.47,-186.601"/><ellipse cx="1460.42" cy="-250.009" fill="none" stroke="#f74251" rx="4" ry="4"/><ellipse cx="1263.15" cy="-186.165" fill="#f74251" stroke="#f74251" rx="4" ry="4"/></g><g id="node7" class="node"><title>Appearance</title><ellipse cx="671" cy="-18" fill="none" stroke="#000" rx="68.099" ry="18"/><text x="671" y="-13.9" font-family="Times Roman,serif" font-size="14" text-anchor="middle">Appearance</text></g><g id="node8" class="node"><title>Transaction</title><ellipse cx="1272" cy="-436" fill="none" stroke="#000" rx="66.014" ry="18"/><text x="1272" y="-431.9" font-family="Times Roman,serif" font-size="14" text-anchor="middle">Transaction</text></g><g id="node9" class="node"><title>AdminUser</title><ellipse cx="1420" cy="-436" fill="none" stroke="#000" rx="63.929" ry="18"/><text x="1420" y="-431.9" font-family="Times Roman,serif" font-size="14" text-anchor="middle">AdminUser</text></g><g id="node10" class="node"><title>Setting</title><ellipse cx="1548" cy="-436" fill="none" stroke="#000" rx="46.056" ry="18"/><text x="1548" y="-431.9" font-family="Times Roman,serif" font-size="14" text-anchor="middle">Setting</text></g><g id="edge58" class="edge"><title>Venue-&gt;Talk</title><path fill="none" stroke="#490619" d="M1170.56,-178.001C1066.68,-169.333 814.775,-147.831 604,-126 564.659,-121.925 519.778,-116.644 488.471,-112.857"/><ellipse cx="1174.68" cy="-178.344" fill="none" stroke="#490619" rx="4" ry="4"/><polygon fill="#490619" stroke="#490619" points="488.329 -112.84 478.945 -107.167 483.366 -112.237 478.402 -111.634 478.402 -111.634 478.402 -111.634 483.366 -112.237 477.86 -116.102 488.329 -112.84 488.329 -112.84"/></g><g id="node14" class="node"><title>TagBundle</title><ellipse cx="1591" cy="-108" fill="none" stroke="#000" rx="61.15" ry="18"/><text x="1591" y="-103.9" font-family="Times Roman,serif" font-size="14" text-anchor="middle">TagBundle</text></g><g id="edge60" class="edge"><title>TagBundle-&gt;ActsAsTaggableOn::Tagging</title><path fill="none" stroke="#af0f6e" d="M1559.38,-85.6421C1555.58,-81.5555 1552.26,-76.9862 1550,-72 1546.28,-63.792 1547.01,-54.3819 1549.44,-45.7406"/><ellipse cx="1562.34" cy="-88.498" fill="none" stroke="#af0f6e" rx="4" ry="4"/><polygon fill="#af0f6e" stroke="#af0f6e" points="1549.53 -45.484 1557.13 -37.583 1551.21 -40.776 1552.89 -36.068 1552.89 -36.068 1552.89 -36.068 1551.21 -40.776 1548.66 -34.553 1549.53 -45.484 1549.53 -45.484"/><text x="1579.5" y="-58.9" font-family="Times Roman,serif" font-size="14" text-anchor="middle">taggings</text></g><g id="edge64" class="edge"><title>TagBundle-&gt;ActsAsTaggableOn::Tagging</title><path fill="none" stroke="#cc867f" d="M1607.55,-82.6049C1611.47,-73.3854 1613.4,-63.0226 1609,-54 1607,-49.889 1604.27,-46.1093 1601.14,-42.6717"/><ellipse cx="1605.65" cy="-86.44" fill="none" stroke="#cc867f" rx="4" ry="4"/><polygon fill="#cc867f" stroke="#cc867f" points="1601.03 -42.568 1596.86 -32.427 1597.4 -39.132 1593.77 -35.697 1593.77 -35.697 1593.77 -35.697 1597.4 -39.132 1590.67 -38.967 1601.03 -42.568 1601.03 -42.568"/><text x="1656.5" y="-58.9" font-family="Times Roman,serif" font-size="14" text-anchor="middle">tag_taggings</text></g><g id="edge62" class="edge"><title>TagBundle-&gt;ActsAsTaggableOn::Tag</title><path fill="none" stroke="#0edea2" d="M1539.28,-91.8553C1494.97,-78.1577 1434.55,-59.8287 1410,-54 1375.3,-45.7601 1336.85,-38.4591 1302.88,-32.6229"/><polygon fill="#0edea2" stroke="#0edea2" points="1539.48 -91.918 1547.7 -99.175 1544.25 -93.397 1549.03 -94.876 1549.03 -94.876 1549.03 -94.876 1544.25 -93.397 1550.36 -90.578 1539.48 -91.918 1539.48 -91.918"/><polygon fill="#0edea2" stroke="#0edea2" points="1302.82 -32.613 1293.72 -26.502 1297.89 -31.775 1292.96 -30.938 1292.96 -30.938 1292.96 -30.938 1297.89 -31.775 1292.21 -35.374 1302.82 -32.613 1302.82 -32.613"/><text x="1506.5" y="-58.9" font-family="Times Roman,serif" font-size="14" text-anchor="middle">base_tags</text></g><g id="edge66" class="edge"><title>TagBundle-&gt;ActsAsTaggableOn::Tag</title><path fill="none" stroke="#48b73d" d="M1534.87,-93.835C1528.52,-92.4408 1522.14,-91.1275 1516,-90 1454.3,-78.6633 1432.68,-98.8982 1376,-72 1365.49,-67.0125 1367.22,-59.5535 1357,-54 1340.65,-45.1149 1322.11,-38.3977 1303.8,-33.327"/><polygon fill="#48b73d" stroke="#48b73d" points="1535 -93.866 1543.76 -100.466 1539.88 -94.972 1544.76 -96.077 1544.76 -96.077 1544.76 -96.077 1539.88 -94.972 1545.75 -91.689 1535 -93.866 1535 -93.866"/><polygon fill="#48b73d" stroke="#48b73d" points="1303.64 -33.285 1295.11 -26.396 1298.8 -32.017 1293.97 -30.75 1293.97 -30.75 1293.97 -30.75 1298.8 -32.017 1292.83 -35.102 1303.64 -33.285 1303.64 -33.285"/><text x="1391" y="-58.9" font-family="Times Roman,serif" font-size="14" text-anchor="middle">tags</text></g><g id="node16" class="node"><title>DebitTransaction</title><ellipse cx="1704" cy="-436" fill="none" stroke="#000" rx="91.92" ry="18"/><text x="1704" y="-431.9" font-family="Times Roman,serif" font-size="14" text-anchor="middle">DebitTransaction</text></g><g id="node17" class="node"><title>ManualTransaction</title><ellipse cx="1915" cy="-436" fill="none" stroke="#000" rx="100.953" ry="18"/><text x="1915" y="-431.9" font-family="Times Roman,serif" font-size="14" text-anchor="middle">ManualTransaction</text></g><g id="node20" class="node"><title>StreamStat</title><ellipse cx="2100" cy="-436" fill="none" stroke="#000" rx="66.207" ry="18"/><text x="2100" y="-431.9" font-family="Times Roman,serif" font-size="14" text-anchor="middle">StreamStat</text></g><g id="edge70" class="edge"><title>Organization-&gt;Device</title><path fill="none" stroke="#8e6cef" d="M1536.16,-340.332C1529.68,-335.764 1523.03,-330.853 1517,-326 1505.38,-316.652 1493.21,-305.541 1483.03,-295.835"/><ellipse cx="1539.79" cy="-342.854" fill="none" stroke="#8e6cef" rx="4" ry="4"/><polygon fill="#8e6cef" stroke="#8e6cef" points="1482.87 -295.684 1478.8 -285.501 1479.27 -292.212 1475.68 -288.739 1475.68 -288.739 1475.68 -288.739 1479.27 -292.212 1472.55 -291.978 1482.87 -295.684 1482.87 -295.684"/></g><g id="edge68" class="edge"><title>Organization-&gt;Membership</title><path fill="none" stroke="#e44a2e" d="M1621.94,-345.014C1636.81,-339.588 1652.79,-333.121 1667,-326 1684.73,-317.117 1703.34,-305.275 1718.43,-294.944"/><ellipse cx="1618.05" cy="-346.406" fill="none" stroke="#e44a2e" rx="4" ry="4"/><polygon fill="#e44a2e" stroke="#e44a2e" points="1718.66 -294.779 1729.44 -292.764 1722.77 -291.924 1726.87 -289.07 1726.87 -289.07 1726.87 -289.07 1722.77 -291.924 1724.3 -285.375 1718.66 -294.779 1718.66 -294.779"/></g><g id="edge72" class="edge"><title>Organization-&gt;ActsAsTaggableOn::Tagging</title><path fill="none" stroke="#506dcb" d="M1609.5,-341.476C1616.45,-336.934 1623.27,-331.74 1629,-326 1655.33,-299.617 1648.83,-283.192 1672,-254 1693.5,-226.92 1712.29,-230.801 1728,-200 1757.71,-141.758 1787.53,-104.496 1746,-54 1737.3,-43.4204 1714.36,-35.9015 1687.54,-30.576"/><ellipse cx="1605.94" cy="-343.688" fill="none" stroke="#506dcb" rx="4" ry="4"/><polygon fill="#506dcb" stroke="#506dcb" points="1687.34 -30.538 1678.33 -24.287 1682.42 -29.625 1677.51 -28.712 1677.51 -28.712 1677.51 -28.712 1682.42 -29.625 1676.69 -33.136 1687.34 -30.538 1687.34 -30.538"/><text x="1775.5" y="-177.9" font-family="Times Roman,serif" font-size="14" text-anchor="middle">taggings</text></g><g id="edge76" class="edge"><title>Organization-&gt;ActsAsTaggableOn::Tagging</title><path fill="none" stroke="#6cfc9b" d="M1579.3,-336.065C1580.58,-332.69 1581.84,-329.271 1583,-326 1608.27,-254.729 1600.05,-231.055 1635,-164 1661.79,-112.614 1740.59,-99.7343 1705,-54 1698.82,-46.0584 1682.89,-39.5867 1663.84,-34.435"/><ellipse cx="1577.77" cy="-340.033" fill="none" stroke="#6cfc9b" rx="4" ry="4"/><polygon fill="#6cfc9b" stroke="#6cfc9b" points="1663.64 -34.385 1655.04 -27.573 1658.79 -33.16 1653.94 -31.936 1653.94 -31.936 1653.94 -31.936 1658.79 -33.16 1652.84 -36.299 1663.64 -34.385 1663.64 -34.385"/><text x="1679.5" y="-177.9" font-family="Times Roman,serif" font-size="14" text-anchor="middle">tag_taggings</text></g><g id="edge74" class="edge"><title>Organization-&gt;ActsAsTaggableOn::Tag</title><path fill="none" stroke="#d73cf2" d="M1555.33,-334.709C1544.12,-312.685 1527.61,-281.027 1512,-254 1497.82,-229.441 1490.27,-225.571 1478,-200 1455.63,-153.364 1479.43,-123.479 1440,-90 1403.91,-59.3542 1379.13,-89.1462 1335,-72 1321.21,-66.6425 1320.26,-60.5685 1307,-54 1295.05,-48.0793 1281.88,-42.6109 1269.15,-37.8174"/><polygon fill="#d73cf2" stroke="#d73cf2" points="1555.42 -334.887 1555.92 -345.841 1557.67 -339.348 1559.93 -343.808 1559.93 -343.808 1559.93 -343.808 1557.67 -339.348 1563.95 -341.775 1555.42 -334.887 1555.42 -334.887"/><polygon fill="#d73cf2" stroke="#d73cf2" points="1268.91 -37.732 1261.08 -30.062 1264.22 -36.009 1259.53 -34.287 1259.53 -34.287 1259.53 -34.287 1264.22 -36.009 1257.98 -38.512 1268.91 -37.732 1268.91 -37.732"/><text x="1512.5" y="-177.9" font-family="Times Roman,serif" font-size="14" text-anchor="middle">base_tags</text></g><g id="edge78" class="edge"><title>Organization-&gt;ActsAsTaggableOn::Tag</title><path fill="none" stroke="#ac4e0b" d="M1571.86,-333.76C1574.64,-293.683 1575.01,-219.064 1547,-164 1535.95,-142.269 1487.91,-100.698 1466,-90 1423.06,-69.0328 1404.56,-89.2698 1360,-72 1346.21,-66.6534 1345.47,-60.1261 1332,-54 1316.79,-47.0816 1299.93,-41.1402 1283.66,-36.1933"/><polygon fill="#ac4e0b" stroke="#ac4e0b" points="1571.85 -333.902 1566.57 -343.513 1571.45 -338.886 1571.06 -343.871 1571.06 -343.871 1571.06 -343.871 1571.45 -338.886 1575.54 -344.228 1571.85 -333.902 1571.85 -333.902"/><polygon fill="#ac4e0b" stroke="#ac4e0b" points="1283.23 -36.065 1274.9 -28.925 1278.43 -34.653 1273.63 -33.242 1273.63 -33.242 1273.63 -33.242 1278.43 -34.653 1272.36 -37.559 1283.23 -36.065 1283.23 -36.065"/><text x="1576" y="-177.9" font-family="Times Roman,serif" font-size="14" text-anchor="middle">tags</text></g><g id="edge88" class="edge"><title>Talk-&gt;User</title><path fill="none" stroke="#68739f" d="M486.588,-113.573C524.168,-121.823 576,-140.972 576,-182 576,-362 576,-362 576,-362 576,-406.516 897.536,-427.521 1013.8,-433.852"/><ellipse cx="482.253" cy="-112.686" fill="none" stroke="#68739f" rx="4" ry="4"/><ellipse cx="1018.14" cy="-434.085" fill="#68739f" stroke="#68739f" rx="4" ry="4"/></g><g id="edge92" class="edge"><title>Talk-&gt;User</title><path fill="none" stroke="#ed019a" d="M467.347,-132.722C475.806,-146.503 484,-164.396 484,-182 484,-362 484,-362 484,-362 484,-415.164 878.321,-431.071 1011.59,-434.929"/><polygon fill="#ed019a" stroke="#ed019a" points="467.313 -132.67 465.598 -121.839 464.573 -128.487 461.834 -124.304 461.834 -124.304 461.834 -124.304 464.573 -128.487 458.069 -126.77 467.313 -132.67 467.313 -132.67"/><polygon fill="#ed019a" stroke="#ed019a" points="1011.84 -434.936 1021.71 -439.715 1016.83 -435.076 1021.83 -435.217 1021.83 -435.217 1021.83 -435.217 1016.83 -435.076 1021.96 -430.718 1011.84 -434.936 1011.84 -434.936"/><text x="507" y="-267.9" font-family="Times Roman,serif" font-size="14" text-anchor="middle">guests</text></g><g id="edge94" class="edge"><title>Talk-&gt;Message</title><path fill="none" stroke="#19db65" d="M414.273,-97.2226C362.849,-81.2636 266.246,-51.2831 207.751,-33.1296"/><ellipse cx="418.417" cy="-98.509" fill="none" stroke="#19db65" rx="4" ry="4"/><polygon fill="#19db65" stroke="#19db65" points="207.548 -33.067 199.332 -25.805 202.773 -31.585 197.998 -30.103 197.998 -30.103 197.998 -30.103 202.773 -31.585 196.664 -34.401 207.548 -33.067 207.548 -33.067"/></g><g id="edge90" class="edge"><title>Talk-&gt;Appearance</title><path fill="none" stroke="#aa013c" d="M483.804,-97.573C505.159,-90.8866 532.933,-81.6704 557,-72 581.782,-62.0425 608.823,-49.3175 630.348,-38.7215"/><ellipse cx="479.775" cy="-98.823" fill="none" stroke="#aa013c" rx="4" ry="4"/><polygon fill="#aa013c" stroke="#aa013c" points="630.558 -38.617 641.516 -38.204 635.037 -36.395 639.516 -34.173 639.516 -34.173 639.516 -34.173 635.037 -36.395 637.516 -30.142 630.558 -38.617 630.558 -38.617"/></g><g id="edge98" class="edge"><title>Talk-&gt;Reminder</title><path fill="none" stroke="#e6c6fa" d="M421.378,-90.3327C403.998,-79.4446 380.966,-65.4287 360,-54 349.619,-48.3412 338.216,-42.5789 327.537,-37.3713"/><ellipse cx="425.073" cy="-92.659" fill="none" stroke="#e6c6fa" rx="4" ry="4"/><polygon fill="#e6c6fa" stroke="#e6c6fa" points="327.389 -37.3 320.338 -28.901 322.886 -35.127 318.383 -32.954 318.383 -32.954 318.383 -32.954 322.886 -35.127 316.427 -37.007 327.389 -37.3 327.389 -37.3"/></g><g id="edge96" class="edge"><title>Talk-&gt;SocialShare</title><path fill="none" stroke="#f76c7e" d="M485.573,-100.757C514.798,-94.503 556.585,-84.5081 592,-72 610.001,-65.6423 612.721,-59.5052 631,-54 681.377,-38.8281 696.121,-44.7531 748,-36 758.709,-34.1932 770.059,-32.19 781.092,-30.1954"/><ellipse cx="481.592" cy="-101.596" fill="none" stroke="#f76c7e" rx="4" ry="4"/><polygon fill="#f76c7e" stroke="#f76c7e" points="781.27 -30.163 791.914 -32.799 786.189 -29.268 791.108 -28.372 791.108 -28.372 791.108 -28.372 786.189 -29.268 790.302 -23.945 781.27 -30.163 781.27 -30.163"/></g><g id="edge100" class="edge"><title>Talk-&gt;Talk</title><path fill="none" stroke="#7644c6" d="M485.238,-114.424C492.129,-113.653 497,-111.511 497,-108 497,-104.489 492.129,-102.347 485.238,-101.576"/><ellipse cx="481.1" cy="-114.576" fill="none" stroke="#7644c6" rx="4" ry="4"/><ellipse cx="481.1" cy="-101.424" fill="#7644c6" stroke="#7644c6" rx="4" ry="4"/><text x="543.5" y="-103.9" font-family="Times Roman,serif" font-size="14" text-anchor="middle">featured_talk</text></g><g id="edge80" class="edge"><title>Talk-&gt;ActsAsTaggableOn::Tagging</title><path fill="none" stroke="#1934a8" d="M486.432,-103.217C517.797,-99.3136 563.772,-93.8365 604,-90 929.626,-58.9455 1011.83,-60.6953 1338,-36 1368.85,-33.6641 1402.08,-31.0569 1433.27,-28.5679"/><ellipse cx="482.357" cy="-103.726" fill="none" stroke="#1934a8" rx="4" ry="4"/><polygon fill="#1934a8" stroke="#1934a8" points="1433.36 -28.561 1443.68 -32.25 1438.34 -28.163 1443.33 -27.764 1443.33 -27.764 1443.33 -27.764 1438.34 -28.163 1442.97 -23.279 1433.36 -28.561 1433.36 -28.561"/><text x="1100.5" y="-58.9" font-family="Times Roman,serif" font-size="14" text-anchor="middle">taggings</text></g><g id="edge84" class="edge"><title>Talk-&gt;ActsAsTaggableOn::Tagging</title><path fill="none" stroke="#1453ce" d="M486.396,-102.79C517.739,-98.6314 563.702,-93.0191 604,-90 721.516,-81.1957 1020.13,-102.344 1134,-72 1150.52,-67.5974 1151.61,-58.8711 1168,-54 1180.79,-50.1982 1322.96,-37.7979 1433.11,-28.608"/><ellipse cx="482.322" cy="-103.335" fill="none" stroke="#1453ce" rx="4" ry="4"/><polygon fill="#1453ce" stroke="#1453ce" points="1433.36 -28.587 1443.7 -32.242 1438.34 -28.172 1443.33 -27.757 1443.33 -27.757 1443.33 -27.757 1438.34 -28.172 1442.95 -23.273 1433.36 -28.587 1433.36 -28.587"/><text x="1212.5" y="-58.9" font-family="Times Roman,serif" font-size="14" text-anchor="middle">tag_taggings</text></g><g id="edge82" class="edge"><title>Talk-&gt;ActsAsTaggableOn::Tag</title><path fill="none" stroke="#3f8f74" d="M489.037,-104.249C546.005,-98.4967 647.29,-86.6113 681,-72 692.91,-66.8378 691.887,-58.6658 704,-54 712.856,-50.5887 940.158,-35.3319 1086.45,-25.8079"/><polygon fill="#3f8f74" stroke="#3f8f74" points="488.893 -104.264 478.497 -100.773 483.917 -104.758 478.942 -105.251 478.942 -105.251 478.942 -105.251 483.917 -104.758 479.386 -109.729 488.893 -104.264 488.893 -104.264"/><polygon fill="#3f8f74" stroke="#3f8f74" points="1086.86 -25.781 1097.13 -29.623 1091.85 -25.457 1096.84 -25.132 1096.84 -25.132 1096.84 -25.132 1091.85 -25.457 1096.55 -20.642 1086.86 -25.781 1086.86 -25.781"/><text x="738.5" y="-58.9" font-family="Times Roman,serif" font-size="14" text-anchor="middle">base_tags</text></g><g id="edge86" class="edge"><title>Talk-&gt;ActsAsTaggableOn::Tag</title><path fill="none" stroke="#5fcd28" d="M489.391,-105.59C526.526,-102.06 582.281,-93.3695 626,-72 637.044,-66.6018 635.613,-58.6321 647,-54 648.263,-53.4861 921.67,-36.1133 1086.28,-25.6929"/><polygon fill="#5fcd28" stroke="#5fcd28" points="488.931 -105.63 478.58 -102.009 483.95 -106.061 478.968 -106.492 478.968 -106.492 478.968 -106.492 483.95 -106.061 479.356 -110.976 488.931 -105.63 488.931 -105.63"/><polygon fill="#5fcd28" stroke="#5fcd28" points="1086.5 -25.68 1096.76 -29.539 1091.49 -25.364 1096.48 -25.048 1096.48 -25.048 1096.48 -25.048 1091.49 -25.364 1096.19 -20.557 1086.5 -25.68 1086.5 -25.68"/><text x="662" y="-58.9" font-family="Times Roman,serif" font-size="14" text-anchor="middle">tags</text></g><g id="edge102" class="edge"><title>Talk-&gt;PgSearch::Document</title><path fill="none" stroke="#be552c" d="M421.721,-89.8451C410.027,-79.7066 400.57,-66.6084 408,-54 411.316,-48.3737 415.862,-43.5647 421.022,-39.47"/><ellipse cx="424.844" cy="-92.354" fill="none" stroke="#be552c" rx="4" ry="4"/><ellipse cx="424.573" cy="-36.964" fill="#be552c" stroke="#be552c" rx="4" ry="4"/><text x="480.5" y="-58.9" font-family="Times Roman,serif" font-size="14" text-anchor="middle">pg_search_document</text></g><g id="node24" class="node"><title>Section</title><ellipse cx="2231" cy="-436" fill="none" stroke="#000" rx="46.755" ry="18"/><text x="2231" y="-431.9" font-family="Times Roman,serif" font-size="14" text-anchor="middle">Section</text></g></g></svg>