<svg xmlns="http://www.w3.org/2000/svg" xmlns:xlink="http://www.w3.org/1999/xlink" width="881pt" height="290pt" viewBox="0 0 881 290"><g id="graph1" class="graph" transform="scale(1 1) rotate(0) translate(4 286)"><title>G</title><polygon fill="#fff" stroke="#fff" points="-4 5 -4 -286 878 -286 878 5 -4 5"/><g id="node1" class="node"><title>EC2</title><polygon fill="none" stroke="#000" points="54 -36 0 -36 0 0 54 0 54 -36"/><text x="27" y="-15.8" font-family="Bitstream Vera Sans" font-size="8" text-anchor="middle">EC2</text></g><g id="node2" class="node"><title>Slack</title><polygon fill="none" stroke="#000" points="645 -36 591 -36 591 0 645 0 645 -36"/><text x="618" y="-15.8" font-family="Bitstream Vera Sans" font-size="8" text-anchor="middle">Slack</text></g><g id="node3" class="node"><title>Icecast</title><polygon fill="none" stroke="#000" points="234 -36 180 -36 180 0 234 0 234 -36"/><text x="207" y="-15.8" font-family="Bitstream Vera Sans" font-size="8" text-anchor="middle">Icecast</text></g><g id="node4" class="node"><title>CloseIO</title><polygon fill="none" stroke="#000" points="567 -36 513 -36 513 0 567 0 567 -36"/><text x="540" y="-15.8" font-family="Bitstream Vera Sans" font-size="8" text-anchor="middle">CloseIO</text></g><g id="node5" class="node"><title>StreamerFSM</title><ellipse cx="244" cy="-264" fill="none" stroke="#000" rx="42.221" ry="18"/><text x="244" y="-261.8" font-family="Bitstream Vera Sans" font-size="8" text-anchor="middle">StreamerFSM</text></g><g id="node7" class="node"><title>ControlCenter</title><ellipse cx="244" cy="-182" fill="none" stroke="#000" rx="43.879" ry="18"/><text x="244" y="-179.8" font-family="Bitstream Vera Sans" font-size="8" text-anchor="middle">ControlCenter</text></g><g id="edge2" class="edge"><title>StreamerFSM-&gt;ControlCenter</title><path fill="none" stroke="#000" d="M244,-245.802C244,-235.398 244,-222.122 244,-210.377"/><polygon fill="#000" stroke="#000" points="244 -200.148 248.5 -210.148 244 -205.148 244 -210.148 244 -210.148 244 -210.148 244 -205.148 239.5 -210.148 244 -200.148 244 -200.148"/><text x="278.5" y="-220.8" font-family="Bitstream Vera Sans" font-size="8" text-anchor="middle">streamer_ready</text></g><g id="node9" class="node"><title>EC2Spawner</title><ellipse cx="80" cy="-264" fill="none" stroke="#000" rx="40.992" ry="18"/><text x="80" y="-261.8" font-family="Bitstream Vera Sans" font-size="8" text-anchor="middle">EC2Spawner</text></g><g id="edge4" class="edge"><title>ControlCenter-&gt;EC2Spawner</title><path fill="none" stroke="#000" d="M216.055,-195.973C188.571,-209.714 146.477,-230.761 116.393,-245.803"/><polygon fill="#000" stroke="#000" points="107.081 -250.459 114.013 -241.962 111.553 -248.223 116.026 -245.987 116.026 -245.987 116.026 -245.987 111.553 -248.223 118.038 -250.012 107.081 -250.459 107.081 -250.459"/><text x="202.5" y="-220.8" font-family="Bitstream Vera Sans" font-size="8" text-anchor="middle">spawn_server</text></g><g id="node13" class="node"><title>Client</title><ellipse cx="381" cy="-100" fill="none" stroke="#000" rx="27" ry="18"/><text x="381" y="-97.8" font-family="Bitstream Vera Sans" font-size="8" text-anchor="middle">Client</text></g><g id="edge10" class="edge"><title>ControlCenter-&gt;Client</title><path fill="none" stroke="#000" d="M287.02,-178.081C328.492,-173.307 386.973,-163.607 401,-146 406.148,-139.538 404.733,-131.548 400.913,-124.049"/><polygon fill="#000" stroke="#000" points="395.573 -115.594 404.718 -121.646 398.243 -119.821 400.913 -124.049 400.913 -124.049 400.913 -124.049 398.243 -119.821 397.108 -126.452 395.573 -115.594 395.573 -115.594"/><text x="451" y="-138.8" font-family="Bitstream Vera Sans" font-size="8" text-anchor="middle">set_streaming_server</text></g><g id="node17" class="node"><title>EC2Reaper</title><ellipse cx="66" cy="-100" fill="none" stroke="#000" rx="35.875" ry="18"/><text x="66" y="-97.8" font-family="Bitstream Vera Sans" font-size="8" text-anchor="middle">EC2Reaper</text></g><g id="edge14" class="edge"><title>ControlCenter-&gt;EC2Reaper</title><path fill="none" stroke="#000" d="M201.062,-177.786C157.9,-172.683 95.3445,-162.637 78,-146 73.1531,-141.351 70.1751,-135.009 68.3676,-128.521"/><polygon fill="#000" stroke="#000" points="66.39 -118.427 72.729 -127.376 67.352 -123.334 68.313 -128.241 68.313 -128.241 68.313 -128.241 67.352 -123.334 63.897 -129.106 66.39 -118.427 66.39 -118.427"/><text x="104" y="-138.8" font-family="Bitstream Vera Sans" font-size="8" text-anchor="middle">reap_server</text></g><g id="node20" class="node"><title>IcecastObserver</title><ellipse cx="207" cy="-100" fill="none" stroke="#000" rx="49.151" ry="18"/><text x="207" y="-97.8" font-family="Bitstream Vera Sans" font-size="8" text-anchor="middle">IcecastObserver</text></g><g id="edge18" class="edge"><title>ControlCenter-&gt;IcecastObserver</title><path fill="none" stroke="#000" d="M204.641,-173.801C177.607,-167.279 145.178,-157.38 137,-146 127.316,-132.525 140.173,-121.923 157.4,-114.31"/><polygon fill="#000" stroke="#000" points="166.711 -110.603 159.086 -118.483 162.066 -112.452 157.421 -114.302 157.421 -114.302 157.421 -114.302 162.066 -112.452 155.756 -110.122 166.711 -110.603 166.711 -110.603"/><text x="179.5" y="-138.8" font-family="Bitstream Vera Sans" font-size="8" text-anchor="middle">new_icecast_server</text></g><g id="node25" class="node"><title>Techne</title><ellipse cx="540" cy="-100" fill="none" stroke="#000" rx="27" ry="18"/><text x="540" y="-97.8" font-family="Bitstream Vera Sans" font-size="8" text-anchor="middle">Techne</text></g><g id="edge26" class="edge"><title>ControlCenter-&gt;Techne</title><path fill="none" stroke="#000" d="M287.73,-179.714C351.46,-175.747 466.17,-166.018 502,-146 510.766,-141.102 518.342,-133.318 524.372,-125.536"/><polygon fill="#000" stroke="#000" points="530.292 -117.228 528.154 -127.984 527.39 -121.3 524.489 -125.372 524.489 -125.372 524.489 -125.372 527.39 -121.3 520.824 -122.761 530.292 -117.228 530.292 -117.228"/><text x="539" y="-138.8" font-family="Bitstream Vera Sans" font-size="8" text-anchor="middle">create_task</text></g><g id="edge6" class="edge"><title>EC2Spawner-&gt;EC2</title><path fill="none" stroke="#000" d="M70.2068,-246.256C56.027,-219.445 30.4435,-166.573 21,-118 16.3576,-94.1216 18.5788,-66.4859 21.5496,-46.3258"/><polygon fill="#000" stroke="#000" points="23.189 -36.246 26.025 -46.838 22.386 -41.181 21.584 -46.116 21.584 -46.116 21.584 -46.116 22.386 -41.181 17.142 -45.394 23.189 -36.246 23.189 -36.246"/><text x="44" y="-138.8" font-family="Bitstream Vera Sans" font-size="8" text-anchor="middle">_create</text></g><g id="edge8" class="edge"><title>EC2Spawner-&gt;ControlCenter</title><path fill="none" stroke="#000" d="M80.4442,-245.629C81.6378,-236.17 84.6819,-225.154 92,-218 106.152,-204.165 153.576,-194.403 191.733,-188.568"/><polygon fill="#000" stroke="#000" points="201.71 -187.097 192.473 -193.008 196.763 -187.826 191.816 -188.556 191.816 -188.556 191.816 -188.556 196.763 -187.826 191.16 -184.104 201.71 -187.097 201.71 -187.097"/><text x="120.5" y="-220.8" font-family="Bitstream Vera Sans" font-size="8" text-anchor="middle">server_ready</text></g><g id="edge24" class="edge"><title>Client-&gt;ControlCenter</title><path fill="none" stroke="#000" d="M360.499,-112.271C338.68,-125.33 303.799,-146.208 277.884,-161.719"/><polygon fill="#000" stroke="#000" points="269.128 -166.96 275.397 -157.963 273.418 -164.392 277.708 -161.824 277.708 -161.824 277.708 -161.824 273.418 -164.392 280.019 -165.685 269.128 -166.96 269.128 -166.96"/><text x="355.5" y="-138.8" font-family="Bitstream Vera Sans" font-size="8" text-anchor="middle">register_listener</text></g><g id="node14" class="node"><title>TalkFSM</title><ellipse cx="336" cy="-264" fill="none" stroke="#000" rx="28.867" ry="18"/><text x="336" y="-261.8" font-family="Bitstream Vera Sans" font-size="8" text-anchor="middle">TalkFSM</text></g><g id="edge12" class="edge"><title>TalkFSM-&gt;ControlCenter</title><path fill="none" stroke="#000" d="M330.585,-246.202C327.05,-236.912 321.649,-225.873 314,-218 306.272,-210.045 296.409,-203.516 286.541,-198.308"/><polygon fill="#000" stroke="#000" points="277.538 -193.894 288.498 -194.256 282.028 -196.095 286.517 -198.296 286.517 -198.296 286.517 -198.296 282.028 -196.095 284.536 -202.337 277.538 -193.894 277.538 -193.894"/><text x="404" y="-220.8" font-family="Bitstream Vera Sans" font-size="8" text-anchor="middle">talk_transition(started,ended,archived)</text></g><g id="edge16" class="edge"><title>EC2Reaper-&gt;EC2</title><path fill="none" stroke="#000" d="M57.5376,-82.2072C52.4112,-71.4287 45.7673,-57.4595 39.9863,-45.3046"/><polygon fill="#000" stroke="#000" points="35.581 -36.041 43.94 -43.139 37.728 -40.556 39.876 -45.072 39.876 -45.072 39.876 -45.072 37.728 -40.556 35.812 -47.005 35.581 -36.041 35.581 -36.041"/><text x="67.5" y="-56.8" font-family="Bitstream Vera Sans" font-size="8" text-anchor="middle">_destroy</text></g><g id="edge20" class="edge"><title>IcecastObserver-&gt;Icecast</title><path fill="none" stroke="#000" d="M207,-81.8015C207,-71.3976 207,-58.1215 207,-46.3768"/><polygon fill="#000" stroke="#000" points="207 -36.148 211.5 -46.148 207 -41.148 207 -46.148 207 -46.148 207 -46.148 207 -41.148 202.5 -46.148 207 -36.148 207 -36.148"/><text x="223" y="-56.8" font-family="Bitstream Vera Sans" font-size="8" text-anchor="middle">_status</text></g><g id="edge22" class="edge"><title>IcecastObserver-&gt;ControlCenter</title><path fill="none" stroke="#000" d="M215.013,-117.758C219.907,-128.604 226.263,-142.69 231.775,-154.908"/><polygon fill="#000" stroke="#000" points="235.972 -164.207 227.757 -156.943 233.915 -159.65 231.859 -155.092 231.859 -155.092 231.859 -155.092 233.915 -159.65 235.96 -153.241 235.972 -164.207 235.972 -164.207"/><text x="259" y="-138.8" font-family="Bitstream Vera Sans" font-size="8" text-anchor="middle">icecast_status</text></g><g id="edge28" class="edge"><title>Techne-&gt;CloseIO</title><path fill="none" stroke="#000" d="M540,-81.8015C540,-71.3976 540,-58.1215 540,-46.3768"/><polygon fill="#000" stroke="#000" points="540 -36.148 544.5 -46.148 540 -41.148 540 -46.148 540 -46.148 540 -46.148 540 -41.148 535.5 -46.148 540 -36.148 540 -36.148"/><text x="567.5" y="-56.8" font-family="Bitstream Vera Sans" font-size="8" text-anchor="middle">_create_task</text></g><g id="node27" class="node"><title>*</title><ellipse cx="536" cy="-264" fill="none" stroke="#000" rx="27" ry="18"/><text x="536" y="-261.8" font-family="Bitstream Vera Sans" font-size="8" text-anchor="middle">*</text></g><g id="node29" class="node"><title>Mediator</title><ellipse cx="618" cy="-182" fill="none" stroke="#000" rx="30.098" ry="18"/><text x="618" y="-179.8" font-family="Bitstream Vera Sans" font-size="8" text-anchor="middle">Mediator</text></g><g id="edge30" class="edge"><title>*-&gt;Mediator</title><path fill="none" stroke="#000" d="M551.04,-248.96C563.368,-236.632 581.014,-218.986 595.097,-204.903"/><polygon fill="#000" stroke="#000" points="602.498 -197.502 598.609 -207.755 598.963 -201.037 595.427 -204.573 595.427 -204.573 595.427 -204.573 598.963 -201.037 592.245 -201.391 602.498 -197.502 602.498 -197.502"/><text x="583.5" y="-220.8" font-family="Bitstream Vera Sans" font-size="8" text-anchor="middle">*</text></g><g id="node37" class="node"><title>Archeon</title><ellipse cx="618" cy="-100" fill="none" stroke="#000" rx="28.946" ry="18"/><text x="618" y="-97.8" font-family="Bitstream Vera Sans" font-size="8" text-anchor="middle">Archeon</text></g><g id="edge38" class="edge"><title>Mediator-&gt;Archeon</title><path fill="none" stroke="#000" d="M618,-163.802C618,-153.398 618,-140.122 618,-128.377"/><polygon fill="#000" stroke="#000" points="618 -118.148 622.5 -128.148 618 -123.148 618 -128.148 618 -128.148 618 -128.148 618 -123.148 613.5 -128.148 618 -118.148 618 -118.148"/><text x="641.5" y="-138.8" font-family="Bitstream Vera Sans" font-size="8" text-anchor="middle">notification</text></g><g id="node30" class="node"><title>DJ</title><ellipse cx="608" cy="-264" fill="none" stroke="#000" rx="27" ry="18"/><text x="608" y="-261.8" font-family="Bitstream Vera Sans" font-size="8" text-anchor="middle">DJ</text></g><g id="edge32" class="edge"><title>DJ-&gt;Mediator</title><path fill="none" stroke="#000" d="M610.219,-245.802C611.488,-235.398 613.107,-222.122 614.539,-210.377"/><polygon fill="#000" stroke="#000" points="615.787 -200.148 619.043 -210.619 615.182 -205.111 614.576 -210.074 614.576 -210.074 614.576 -210.074 615.182 -205.111 610.109 -209.529 615.787 -200.148 615.787 -200.148"/><text x="636" y="-220.8" font-family="Bitstream Vera Sans" font-size="8" text-anchor="middle">dj_callback</text></g><g id="node32" class="node"><title>AudioProgress</title><ellipse cx="698" cy="-264" fill="none" stroke="#000" rx="45.109" ry="18"/><text x="698" y="-261.8" font-family="Bitstream Vera Sans" font-size="8" text-anchor="middle">AudioProgress</text></g><g id="edge34" class="edge"><title>AudioProgress-&gt;Mediator</title><path fill="none" stroke="#000" d="M686.299,-246.586C679.901,-237.619 671.551,-226.761 663,-218 657.715,-212.585 651.626,-207.228 645.668,-202.367"/><polygon fill="#000" stroke="#000" points="637.714 -196.087 648.351 -198.752 641.639 -199.185 645.563 -202.284 645.563 -202.284 645.563 -202.284 641.639 -199.185 642.774 -205.815 637.714 -196.087 637.714 -196.087"/><text x="704.5" y="-220.8" font-family="Bitstream Vera Sans" font-size="8" text-anchor="middle">audio_progress</text></g><g id="node34" class="node"><title>PurchaseController</title><ellipse cx="817" cy="-264" fill="none" stroke="#000" rx="56.08" ry="18"/><text x="817" y="-261.8" font-family="Bitstream Vera Sans" font-size="8" text-anchor="middle">PurchaseController</text></g><g id="edge36" class="edge"><title>PurchaseController-&gt;Mediator</title><path fill="none" stroke="#000" d="M793.908,-247.597C779.511,-237.948 760.3,-226.093 742,-218 714.251,-205.729 681.181,-196.37 656.175,-190.274"/><polygon fill="#000" stroke="#000" points="646.333 -187.942 657.101 -185.869 651.198 -189.095 656.063 -190.248 656.063 -190.248 656.063 -190.248 651.198 -189.095 655.025 -194.627 646.333 -187.942 646.333 -187.942"/><text x="805.5" y="-220.8" font-family="Bitstream Vera Sans" font-size="8" text-anchor="middle">purchase_completed</text></g><g id="edge40" class="edge"><title>Archeon-&gt;Slack</title><path fill="none" stroke="#000" d="M618,-81.8015C618,-71.3976 618,-58.1215 618,-46.3768"/><polygon fill="#000" stroke="#000" points="618 -36.148 622.5 -46.148 618 -41.148 618 -46.148 618 -46.148 618 -46.148 618 -41.148 613.5 -46.148 618 -36.148 618 -36.148"/><text x="640.5" y="-56.8" font-family="Bitstream Vera Sans" font-size="8" text-anchor="middle">_message</text></g></g></svg>