<svg xmlns="http://www.w3.org/2000/svg" xmlns:xlink="http://www.w3.org/1999/xlink" id="Layer_1" x="0" y="0" enable-background="new 0 0 28 28" version="1.1" viewBox="0 0 28 28" xml:space="preserve"><g><defs><rect id="SVGID_1_" width="28" height="28"/></defs><clipPath id="SVGID_2_"><use overflow="visible" xlink:href="#SVGID_1_"/></clipPath><path d="M27.257,21.336l-9.76-18.588C16.535,0.917,15.267,0,13.999,0c-1.267,0-2.534,0.915-3.497,2.746 l-9.76,18.592C-1.181,24.999,0.763,28,5.063,28h17.873C27.236,28,29.181,24.998,27.257,21.336 M14,24c-0.829,0-1.5-0.672-1.5-1.5 S13.171,21,14,21c0.829,0,1.5,0.672,1.5,1.5S14.829,24,14,24 M15.5,19h-3l-1-10h5L15.5,19z" clip-path="url(#SVGID_2_)"/></g></svg>