<svg xmlns="http://www.w3.org/2000/svg" xmlns:xlink="http://www.w3.org/1999/xlink" id="Layer_1" x="0" y="0" enable-background="new 0 0 28 28" version="1.1" viewBox="0 0 28 28" xml:space="preserve"><g><defs><rect id="SVGID_1_" width="28" height="28"/></defs><clipPath id="SVGID_2_"><use overflow="visible" xlink:href="#SVGID_1_"/></clipPath><path d="M23,5c-0.395,0-0.774,0.057-1.144,0.144C21.232,2.205,18.625,0,15.5,0C11.91,0,9,2.91,9,6.5 C9,6.669,9.014,6.834,9.025,7H7.53C7.52,6.833,7.5,6.669,7.5,6.5c0-1.101,0.225-2.149,0.628-3.105C7.466,3.144,6.75,3,6,3 C2.688,3,0,5.686,0,9s2.688,6,6,6h17c2.762,0,5-2.238,5-5S25.762,5,23,5 M7,25h5v3h6v-3h5l-8.018-8L7,25z" clip-path="url(#SVGID_2_)"/></g></svg>