<svg xmlns="http://www.w3.org/2000/svg" xmlns:xlink="http://www.w3.org/1999/xlink" id="Layer_1" x="0" y="0" enable-background="new 0 0 28 28" version="1.1" viewBox="0 0 28 28" xml:space="preserve"><rect width="19" height="4" x="9"/><g><defs><rect id="SVGID_1_" width="28" height="28"/></defs><clipPath id="SVGID_2_"><use overflow="visible" xlink:href="#SVGID_1_"/></clipPath><path d="M2,0C0.895,0,0,0.895,0,2c0,1.105,0.895,2,2,2c1.104,0,2-0.895,2-2C4,0.895,3.104,0,2,0" clip-path="url(#SVGID_2_)"/><rect width="19" height="4" x="9" y="8" clip-path="url(#SVGID_2_)"/><path d="M2,8c-1.105,0-2,0.895-2,2c0,1.105,0.895,2,2,2c1.104,0,2-0.895,2-2C4,8.895,3.104,8,2,8" clip-path="url(#SVGID_2_)"/><rect width="19" height="4" x="9" y="24" clip-path="url(#SVGID_2_)"/><path d="M2,24c-1.105,0-2,0.896-2,2c0,1.105,0.895,2,2,2c1.104,0,2-0.895,2-2C4,24.896,3.104,24,2,24" clip-path="url(#SVGID_2_)"/><rect width="19" height="4" x="9" y="16" clip-path="url(#SVGID_2_)"/><path d="M2,16c-1.105,0-2,0.896-2,2c0,1.105,0.895,2,2,2c1.104,0,2-0.895,2-2C4,16.896,3.104,16,2,16" clip-path="url(#SVGID_2_)"/></g></svg>