<svg xmlns="http://www.w3.org/2000/svg" xmlns:xlink="http://www.w3.org/1999/xlink" id="Layer_1" x="0" y="0" enable-background="new 0 0 28 28" version="1.1" viewBox="0 0 28 28" xml:space="preserve"><g><defs><rect id="SVGID_1_" width="28" height="28"/></defs><clipPath id="SVGID_2_"><use overflow="visible" xlink:href="#SVGID_1_"/></clipPath><path d="M27.393,24.463l-6.428-6.428l-0.031,0.031C22.233,16.203,23,13.942,23,11.5 C23,5.149,17.852,0,11.5,0C5.15,0,0,5.149,0,11.5S5.15,23,11.5,23c2.443,0,4.704-0.768,6.566-2.066l-0.031,0.031l6.429,6.428 C24.867,27.798,25.398,28,25.929,28c0.53,0,1.059-0.202,1.464-0.607C28.203,26.583,28.203,25.271,27.393,24.463 M11.5,20 C6.813,20,3,16.187,3,11.5C3,6.814,6.813,3,11.5,3S20,6.814,20,11.5C20,16.187,16.187,20,11.5,20" clip-path="url(#SVGID_2_)"/></g></svg>